<svg width="82" height="64" viewBox="0 0 82 64" fill="none" xmlns="http://www.w3.org/2000/svg" xmlns:xlink="http://www.w3.org/1999/xlink">
<g style="mix-blend-mode:multiply">
<path d="M6.593,33.207C6.593,33.207 7.216,29.622 10.051,29.297L26.625,35.184L76.606,8.28L78.233,7.34C78.233,7.34 79.859,6.73 79.859,9.705L79.631,26.525L80.711,26.904C80.711,26.904 83.103,28.019 77.722,30.661L25.429,61.362C19.53,64.955 11.641,62.022 5.97,59.271C1.503,57.811 3.005,56.483 3.005,56.483L6.089,55.546L6.593,33.207Z" fill="#A4A3A3"/>
</g>
<path d="M79.893,24.51L79.893,7.447C79.893,4.472 78.267,5.082 78.267,5.082L76.64,6.023L26.659,32.928C26.659,32.928 23.709,33.816 23.447,38.588L21.622,59.307C21.622,59.307 21.257,61.667 25.464,59.104L77.757,28.405C80.44,27.041 79.893,24.51 79.893,24.51Z" fill="#F39500"/>
<g style="mix-blend-mode:multiply">
<path d="M22.297,54.502L79.932,21.413L79.854,21.276L22.218,54.366L22.297,54.502Z" fill="#B2B2B2"/>
<line x1="31.244" y1="45.23" x2="31.244" y2="55.659" stroke="#B2B2B2" stroke-width="0.079" stroke-miterlimit="3.999327" stroke-linejoin="round"/>
<line x1="37.907" y1="41.346" x2="37.907" y2="51.772" stroke="#B2B2B2" stroke-width="0.079" stroke-miterlimit="3.999327" stroke-linejoin="round"/>
<line x1="45.245" y1="37.081" x2="45.245" y2="47.51" stroke="#B2B2B2" stroke-width="0.079" stroke-miterlimit="3.999327" stroke-linejoin="round"/>
<line x1="53.403" y1="32.236" x2="53.403" y2="42.663" stroke="#B2B2B2" stroke-width="0.079" stroke-miterlimit="3.999327" stroke-linejoin="round"/>
<line x1="61.036" y1="27.788" x2="61.036" y2="38.217" stroke="#B2B2B2" stroke-width="0.079" stroke-miterlimit="3.999327" stroke-linejoin="round"/>
</g>
<path d="M34.466,57.734L31.542,56.951C31.234,56.792 30.993,56.526 30.866,56.204C30.473,54.519 30.176,53.655 30.885,51.873C31.952,49.203 34.227,47.604 35.98,48.302C37.732,49 38.291,51.717 37.231,54.396C36.571,56.054 35.649,57.196 34.456,57.734Z" fill="#181817"/>
<path d="M70.576,36.439L67.65,35.658C67.342,35.498 67.101,35.232 66.974,34.909C66.581,33.224 66.284,32.36 66.993,30.578C68.06,27.91 70.335,26.309 72.088,27.007C73.84,27.705 74.401,30.433 73.351,33.101C72.692,34.759 71.77,35.901 70.589,36.439Z" fill="#181817"/>
<path d="M61.115,42.125L58.197,41.342C57.888,41.183 57.648,40.917 57.52,40.595C57.125,38.911 56.831,38.046 57.539,36.264C58.607,33.594 60.882,31.995 62.634,32.693C64.387,33.391 64.946,36.108 63.885,38.787C63.226,40.445 62.303,41.587 61.121,42.125Z" fill="#181817"/>
<path d="M77.027,25.523C77.009,22.224 73.283,23.357 73.283,23.357L61.117,30.048C56.269,32.61 56.502,38.821 56.502,38.821L41.433,47.508C40.366,42.599 35.047,45.23 35.047,45.23C30.396,47.512 29.483,52.152 29.483,52.152L21.912,56.131L21.632,59.307C21.632,59.307 21.267,61.667 25.474,59.104L77.767,28.405C80.457,27.041 79.902,24.51 79.902,24.51L79.902,24.029L77.027,25.523Z" fill="#FFFFFF"/>
<path d="M7.441,57.038C7.441,57.038 17.005,62.351 22.46,60.355L26.659,32.928L10.087,27.041C7.251,27.365 6.627,30.951 6.627,30.951C6.627,30.951 3.37,43.31 4.837,52.75C4.837,52.75 4.459,55.792 7.441,57.038Z" fill="#F39500"/>
<path d="M6.228,51.907C5.624,51.66 5.074,51.297 4.608,50.84C4.667,51.484 4.743,52.118 4.839,52.741C4.839,52.741 4.459,55.783 7.441,57.029C7.441,57.029 17.005,62.342 22.46,60.346L23.152,55.832C16.834,57.796 6.228,51.907 6.228,51.907Z" fill="#FFFFFF"/>
<path d="M8.452,31.017L3.81,32.315C3.81,32.315 0.847,32.955 0.873,36.938L2.42,36.938C2.42,36.938 2.504,34.413 4.691,33.978L7.825,33.495L8.452,31.017Z" fill="#20201F"/>
<path d="M2.717,42.005L0,41.265L0,36.125L2.717,36.866L2.717,42.005Z" fill="#2D2D2D"/>
<path d="M2.717,36.866L3.005,36.701L3.005,41.578L2.717,42.005L2.717,36.866Z" fill="#0E0E0C"/>
<path d="M0,36.125L0.382,36.021L3.005,36.701L2.717,36.866L0,36.125Z" fill="#414142"/>
<g style="mix-blend-mode:multiply">
<path d="M22.251,54.44L22.292,54.662C22.399,54.642 22.476,54.549 22.476,54.44L22.251,54.44ZM22.026,50.599L22.026,54.44L22.476,54.44L22.476,50.599L22.026,50.599ZM22.211,54.219C18.582,54.886 14.2,53.777 10.7,52.481C8.955,51.835 7.439,51.147 6.359,50.62C5.819,50.357 5.389,50.134 5.094,49.977C4.946,49.899 4.832,49.837 4.756,49.795C4.717,49.773 4.688,49.757 4.669,49.746C4.659,49.741 4.652,49.737 4.647,49.734C4.645,49.733 4.643,49.732 4.642,49.731C4.641,49.731 4.641,49.731 4.641,49.731C4.641,49.731 4.641,49.73 4.64,49.73C4.64,49.73 4.64,49.73 4.529,49.926C4.418,50.122 4.418,50.122 4.418,50.122C4.418,50.122 4.418,50.122 4.419,50.122C4.419,50.123 4.42,50.123 4.42,50.123C4.422,50.124 4.424,50.125 4.426,50.127C4.431,50.13 4.439,50.134 4.449,50.14C4.469,50.151 4.499,50.168 4.539,50.189C4.617,50.232 4.733,50.295 4.882,50.375C5.181,50.534 5.616,50.759 6.161,51.025C7.251,51.556 8.781,52.251 10.543,52.904C14.058,54.204 18.537,55.352 22.292,54.662L22.211,54.219Z" fill="#B2B2B2"/>
</g>
<path d="M65.104,0.651L77.69,5.454L25.084,33.762L8.877,27.509L65.104,0.651Z" fill="#403F40"/>
<g style="mix-blend-mode:multiply">
<path d="M22.364,50.794L80.006,17.569L79.781,17.179L22.139,50.403L22.364,50.794Z" fill="#B2B2B2"/>
</g>
<g style="mix-blend-mode:multiply">
<path d="M6.16,47.807L6.23,47.593C6.172,47.574 6.109,47.579 6.055,47.607C6.001,47.636 5.961,47.685 5.944,47.743L6.16,47.807ZM6.99,50.022L6.873,50.215L6.889,50.223L6.99,50.022ZM16.704,53.194L16.67,53.417C16.697,53.421 16.724,53.42 16.751,53.414L16.704,53.194ZM17.545,51.542L17.758,51.471C17.736,51.403 17.683,51.35 17.615,51.328L17.545,51.542ZM6.16,47.807C5.944,47.743 5.944,47.743 5.944,47.743C5.944,47.743 5.944,47.744 5.944,47.744C5.944,47.744 5.944,47.744 5.944,47.744C5.943,47.745 5.943,47.745 5.943,47.746C5.943,47.747 5.942,47.749 5.942,47.751C5.941,47.755 5.939,47.76 5.938,47.766C5.934,47.78 5.929,47.798 5.924,47.821C5.914,47.868 5.901,47.934 5.89,48.015C5.868,48.176 5.852,48.401 5.88,48.653C5.936,49.162 6.17,49.788 6.873,50.215L7.107,49.83C6.553,49.494 6.372,49.013 6.327,48.604C6.305,48.398 6.317,48.211 6.336,48.076C6.345,48.009 6.356,47.956 6.364,47.92C6.368,47.902 6.371,47.888 6.373,47.88C6.374,47.876 6.375,47.873 6.376,47.871C6.376,47.87 6.376,47.87 6.376,47.87C6.376,47.869 6.376,47.869 6.376,47.87C6.376,47.87 6.376,47.87 6.376,47.87C6.376,47.87 6.376,47.87 6.376,47.87C6.376,47.87 6.376,47.87 6.16,47.807ZM6.99,50.022C6.889,50.223 6.889,50.223 6.889,50.223C6.889,50.223 6.889,50.223 6.889,50.223C6.889,50.224 6.89,50.224 6.89,50.224C6.891,50.224 6.892,50.225 6.893,50.225C6.895,50.227 6.899,50.228 6.904,50.231C6.913,50.236 6.928,50.243 6.946,50.252C6.983,50.27 7.038,50.297 7.11,50.331C7.253,50.4 7.463,50.499 7.729,50.62C8.262,50.861 9.023,51.19 9.937,51.543C11.764,52.247 14.209,53.046 16.67,53.417L16.737,52.971C14.322,52.608 11.91,51.821 10.099,51.123C9.194,50.774 8.441,50.448 7.915,50.209C7.652,50.09 7.445,49.993 7.305,49.925C7.235,49.892 7.181,49.865 7.145,49.848C7.127,49.839 7.114,49.832 7.105,49.828C7.1,49.825 7.097,49.824 7.095,49.823C7.094,49.822 7.093,49.822 7.092,49.821C7.092,49.821 7.092,49.821 7.092,49.821C7.092,49.821 7.092,49.821 7.092,49.821C7.092,49.821 7.092,49.821 6.99,50.022ZM16.704,53.194C16.751,53.414 16.751,53.414 16.751,53.414C16.751,53.414 16.751,53.414 16.751,53.414C16.751,53.414 16.752,53.414 16.752,53.414C16.752,53.414 16.753,53.414 16.753,53.414C16.755,53.413 16.756,53.413 16.758,53.413C16.762,53.412 16.767,53.41 16.773,53.409C16.785,53.406 16.802,53.401 16.823,53.395C16.864,53.383 16.92,53.365 16.986,53.338C17.116,53.284 17.289,53.194 17.447,53.052C17.607,52.907 17.755,52.707 17.825,52.438C17.895,52.168 17.884,51.848 17.758,51.471L17.331,51.613C17.435,51.924 17.433,52.154 17.389,52.324C17.345,52.493 17.253,52.62 17.146,52.717C17.037,52.815 16.913,52.88 16.814,52.921C16.765,52.941 16.723,52.955 16.695,52.963C16.681,52.968 16.67,52.97 16.664,52.972C16.66,52.973 16.658,52.973 16.657,52.974C16.657,52.974 16.656,52.974 16.656,52.974C16.656,52.974 16.656,52.974 16.657,52.974C16.657,52.974 16.657,52.974 16.657,52.974C16.657,52.974 16.657,52.974 16.657,52.974C16.657,52.974 16.657,52.974 16.704,53.194ZM17.615,51.328L6.23,47.593L6.09,48.021L17.475,51.756L17.615,51.328Z" fill="#B2B2B2"/>
</g>
<path d="M10.087,27.041C7.146,27.097 6.307,30.951 6.307,30.951C6.307,30.951 4.256,38.943 4.455,47.173C4.455,47.173 13.816,52.163 20.198,52.007C22.251,52.054 22.46,50.857 22.46,50.857C22.552,42.464 23.688,36.847 23.688,36.847C24.328,33.131 26.659,32.923 26.659,32.923C26.659,32.923 11.295,28.973 10.087,27.041Z" fill="#2D2D2D"/>
<path d="M21.383,49.442C21.383,49.442 21.312,50.784 19.261,50.477C18.917,50.426 10.452,49.057 4.44,45.228C4.226,38.294 6.307,30.97 6.307,30.97C6.307,30.97 6.734,29.679 7.801,30.194C13.938,33.13 20.806,34.132 20.806,34.132C20.806,34.132 22.699,34.304 22.362,37.004C22.371,37.004 21.613,41.263 21.383,49.442Z" fill="#8CD0E5"/>
<g style="mix-blend-mode:multiply">
<path d="M19.372,46.182C18.537,46.527 17.641,46.699 16.738,46.69C14.524,46.744 12.32,46.361 10.254,45.563C8.627,44.908 7.088,43.975 6.043,42.537C5.511,41.751 5.059,40.914 4.696,40.037C4.681,40.005 4.668,39.971 4.653,39.939C4.466,41.695 4.395,43.461 4.44,45.226C10.452,49.055 18.917,50.423 19.261,50.475C21.312,50.782 21.383,49.44 21.383,49.44C21.436,47.615 21.513,45.988 21.596,44.558C20.975,45.248 20.218,45.801 19.372,46.182L19.372,46.182Z" fill="#8CD0E5"/>
</g>
<path d="M10.427,50.404C10.413,50.441 10.393,50.474 10.367,50.503C10.34,50.532 10.308,50.555 10.273,50.571C10.238,50.587 10.2,50.596 10.161,50.598C10.122,50.599 10.083,50.593 10.047,50.579L8.644,50.069C8.607,50.057 8.572,50.036 8.543,50.01C8.513,49.984 8.489,49.951 8.472,49.916C8.455,49.88 8.446,49.841 8.445,49.801C8.444,49.761 8.451,49.722 8.465,49.685C8.492,49.612 8.547,49.552 8.618,49.519C8.689,49.486 8.77,49.483 8.843,49.51L10.247,50.026C10.32,50.054 10.379,50.109 10.412,50.18C10.445,50.25 10.449,50.331 10.422,50.404L10.427,50.404Z" fill="#2D2D2D"/>
<path d="M14.111,51.681C14.099,51.718 14.081,51.752 14.056,51.782C14.031,51.811 14,51.836 13.966,51.854C13.932,51.872 13.894,51.883 13.856,51.886C13.817,51.889 13.778,51.885 13.741,51.873L12.307,51.42C12.233,51.396 12.171,51.343 12.136,51.274C12.1,51.204 12.093,51.123 12.117,51.049L12.117,51.049C12.141,50.974 12.193,50.912 12.262,50.876C12.331,50.84 12.412,50.833 12.486,50.857L13.912,51.311C13.949,51.323 13.983,51.342 14.013,51.367C14.042,51.392 14.066,51.422 14.084,51.456C14.102,51.491 14.112,51.528 14.115,51.567C14.119,51.605 14.114,51.644 14.102,51.681L14.111,51.681Z" fill="#2D2D2D"/>
<path d="M4.837,53.365L7.761,54.581C7.761,54.581 8.465,52.554 4.623,51.047C4.623,51.047 4.348,51.126 4.837,53.307Z" fill="#2D2D2D"/>
<path d="M6.568,52.727C6.568,52.864 6.527,52.999 6.45,53.113C6.374,53.228 6.265,53.317 6.138,53.37C6.01,53.422 5.87,53.436 5.735,53.409C5.6,53.382 5.476,53.315 5.379,53.218C5.282,53.12 5.216,52.996 5.189,52.861C5.162,52.726 5.177,52.586 5.23,52.459C5.283,52.332 5.372,52.223 5.487,52.147C5.601,52.071 5.736,52.03 5.874,52.031C6.058,52.031 6.235,52.105 6.365,52.235C6.495,52.366 6.568,52.542 6.568,52.727L6.568,52.727Z" fill="#DADADA"/>
<path d="M5.991,52.754C6.046,52.81 6.114,52.849 6.19,52.867C6.266,52.885 6.345,52.88 6.418,52.855C6.45,52.788 6.468,52.715 6.469,52.641C6.469,52.505 6.416,52.374 6.321,52.276C6.226,52.179 6.098,52.121 5.961,52.116C5.888,52.208 5.851,52.323 5.856,52.441C5.862,52.558 5.91,52.67 5.991,52.754L5.991,52.754Z" fill="#FFFFFF"/>
<path d="M5.842,52.916C5.741,52.795 5.681,52.644 5.671,52.486C5.661,52.328 5.7,52.171 5.784,52.037C5.67,52.052 5.56,52.095 5.466,52.162C5.372,52.23 5.297,52.319 5.246,52.423C5.196,52.527 5.172,52.642 5.177,52.758C5.182,52.874 5.216,52.986 5.275,53.085C5.335,53.184 5.418,53.267 5.517,53.326C5.617,53.385 5.73,53.418 5.845,53.423C5.961,53.427 6.076,53.403 6.179,53.352C6.283,53.3 6.373,53.224 6.44,53.13C6.33,53.155 6.215,53.148 6.11,53.11C6.004,53.072 5.911,53.005 5.842,52.916L5.842,52.916Z" fill="#C6C6C6"/>
<path d="M7.338,53.465C7.339,53.558 7.311,53.65 7.26,53.728C7.208,53.806 7.135,53.866 7.048,53.902C6.962,53.938 6.867,53.948 6.776,53.93C6.684,53.912 6.6,53.867 6.534,53.802C6.467,53.736 6.422,53.652 6.404,53.56C6.386,53.468 6.395,53.374 6.43,53.287C6.466,53.201 6.526,53.127 6.604,53.075C6.682,53.023 6.773,52.996 6.866,52.996C6.928,52.995 6.99,53.007 7.047,53.031C7.104,53.054 7.156,53.089 7.2,53.132C7.244,53.176 7.278,53.228 7.302,53.285C7.326,53.342 7.338,53.403 7.338,53.465L7.338,53.465Z" fill="#DADADA"/>
<path d="M6.948,53.484C6.984,53.523 7.03,53.549 7.082,53.561C7.133,53.573 7.186,53.569 7.236,53.55C7.258,53.504 7.27,53.453 7.27,53.401C7.267,53.311 7.23,53.226 7.167,53.162C7.104,53.098 7.018,53.061 6.928,53.057C6.88,53.119 6.855,53.196 6.858,53.274C6.862,53.353 6.894,53.427 6.948,53.484L6.948,53.484Z" fill="#FFFFFF"/>
<path d="M6.847,53.593C6.779,53.511 6.738,53.409 6.732,53.303C6.725,53.196 6.752,53.09 6.809,53C6.731,53.01 6.658,53.039 6.594,53.084C6.531,53.13 6.48,53.19 6.446,53.26C6.412,53.331 6.396,53.408 6.399,53.486C6.403,53.564 6.425,53.64 6.465,53.707C6.505,53.774 6.561,53.829 6.629,53.869C6.696,53.909 6.772,53.932 6.849,53.935C6.927,53.938 7.005,53.922 7.075,53.887C7.145,53.853 7.205,53.802 7.251,53.738C7.177,53.755 7.099,53.75 7.028,53.724C6.956,53.698 6.894,53.653 6.847,53.593L6.847,53.593Z" fill="#C6C6C6"/>
<path d="M5.458,51.903C5.458,51.975 5.437,52.046 5.397,52.106C5.357,52.167 5.3,52.214 5.233,52.242C5.167,52.269 5.093,52.277 5.022,52.263C4.951,52.249 4.886,52.214 4.835,52.163C4.783,52.112 4.749,52.046 4.735,51.975C4.721,51.904 4.728,51.831 4.756,51.764C4.784,51.697 4.831,51.64 4.891,51.6C4.952,51.561 5.022,51.539 5.095,51.54C5.191,51.54 5.283,51.579 5.351,51.647C5.419,51.715 5.457,51.807 5.458,51.903L5.458,51.903Z" fill="#F9B233"/>
<path d="M21.741,56.235L21.741,58.393L17.161,57.384C17.161,57.384 17.389,55.128 21.741,56.235Z" fill="#2D2D2D"/>
<path d="M19.383,56.492C19.295,56.613 19.246,56.758 19.241,56.907C19.236,57.056 19.275,57.204 19.354,57.331C19.433,57.458 19.548,57.559 19.684,57.62C19.82,57.682 19.971,57.702 20.119,57.678C20.266,57.654 20.403,57.587 20.512,57.485C20.621,57.382 20.698,57.25 20.732,57.105C20.766,56.959 20.756,56.807 20.704,56.667C20.651,56.527 20.558,56.406 20.437,56.319C20.274,56.202 20.072,56.155 19.874,56.188C19.677,56.22 19.5,56.329 19.383,56.492L19.383,56.492Z" fill="#DADADA"/>
<path d="M19.873,56.882C19.791,56.897 19.705,56.888 19.627,56.856C19.549,56.824 19.482,56.77 19.434,56.701C19.449,56.619 19.482,56.541 19.53,56.472C19.616,56.353 19.745,56.271 19.891,56.244C20.036,56.218 20.186,56.248 20.309,56.329C20.317,56.459 20.277,56.587 20.197,56.689C20.117,56.791 20.001,56.86 19.873,56.882L19.873,56.882Z" fill="#FFFFFF"/>
<path d="M19.903,57.113C20.069,57.069 20.217,56.974 20.326,56.842C20.435,56.709 20.499,56.545 20.51,56.374C20.602,56.459 20.672,56.567 20.712,56.686C20.753,56.805 20.763,56.932 20.742,57.056C20.721,57.18 20.669,57.297 20.592,57.396C20.514,57.495 20.413,57.573 20.297,57.623C20.182,57.673 20.056,57.693 19.93,57.682C19.805,57.671 19.684,57.629 19.58,57.559C19.475,57.49 19.389,57.395 19.33,57.284C19.271,57.173 19.241,57.049 19.242,56.923C19.322,57.014 19.428,57.081 19.545,57.114C19.662,57.148 19.786,57.147 19.903,57.113L19.903,57.113Z" fill="#C6C6C6"/>
<path d="M18.236,56.658C18.178,56.74 18.145,56.838 18.142,56.939C18.14,57.039 18.167,57.139 18.22,57.224C18.274,57.31 18.351,57.377 18.443,57.419C18.535,57.46 18.637,57.473 18.737,57.456C18.836,57.44 18.928,57.394 19.002,57.325C19.075,57.256 19.127,57.167 19.149,57.068C19.172,56.97 19.165,56.867 19.13,56.773C19.094,56.679 19.031,56.597 18.949,56.539C18.895,56.499 18.833,56.472 18.767,56.456C18.702,56.441 18.634,56.439 18.568,56.45C18.502,56.461 18.438,56.485 18.382,56.521C18.325,56.557 18.275,56.603 18.236,56.658L18.236,56.658Z" fill="#DADADA"/>
<path d="M18.569,56.921C18.513,56.931 18.455,56.924 18.402,56.902C18.349,56.88 18.303,56.844 18.271,56.797C18.282,56.734 18.31,56.676 18.35,56.626C18.39,56.576 18.442,56.538 18.5,56.513C18.559,56.488 18.623,56.478 18.686,56.484C18.75,56.49 18.811,56.512 18.864,56.547C18.869,56.635 18.842,56.721 18.788,56.79C18.734,56.859 18.656,56.906 18.569,56.921L18.569,56.921Z" fill="#FFFFFF"/>
<path d="M18.589,57.081C18.701,57.052 18.801,56.988 18.875,56.898C18.948,56.808 18.992,56.697 18.998,56.581C19.061,56.639 19.109,56.711 19.137,56.791C19.165,56.872 19.172,56.958 19.158,57.042C19.144,57.126 19.109,57.205 19.057,57.272C19.005,57.339 18.936,57.392 18.858,57.426C18.78,57.46 18.695,57.474 18.61,57.466C18.525,57.459 18.444,57.43 18.373,57.383C18.302,57.336 18.244,57.272 18.204,57.197C18.164,57.122 18.144,57.038 18.145,56.953C18.199,57.014 18.269,57.059 18.348,57.082C18.427,57.105 18.51,57.104 18.589,57.081Z" fill="#C6C6C6"/>
<path d="M20.883,56.472C20.838,56.536 20.813,56.612 20.81,56.689C20.808,56.767 20.829,56.844 20.87,56.91C20.912,56.977 20.972,57.029 21.043,57.061C21.114,57.093 21.193,57.103 21.27,57.091C21.347,57.078 21.418,57.042 21.475,56.989C21.532,56.936 21.572,56.867 21.59,56.791C21.607,56.715 21.602,56.636 21.575,56.563C21.548,56.49 21.499,56.426 21.436,56.381C21.35,56.32 21.244,56.295 21.141,56.312C21.037,56.33 20.944,56.387 20.883,56.472L20.883,56.472Z" fill="#F9B233"/>
<g style="mix-blend-mode:multiply">
<path d="M8.903,54.197C10.674,55.087 12.534,55.789 14.452,56.291L14.452,59.507C12.318,58.97 9.705,57.689 8.903,57.283L8.903,54.197ZM8.452,53.467L8.452,57.561C8.452,57.561 12.222,59.548 14.9,60.071L14.9,55.928C14.9,55.928 12.307,55.437 8.452,53.467L8.452,53.467Z" fill="#B2B2B2"/>
</g>
<g style="mix-blend-mode:multiply">
<path d="M9.061,54.609L9.061,55.002C9.061,55.002 10.516,56.056 14.292,56.904L14.292,56.511C12.473,56.106 10.715,55.466 9.061,54.609L9.061,54.609Z" fill="#C6C6C6"/>
<path d="M9.061,55.294L9.061,55.687C9.061,55.687 10.614,56.716 14.292,57.589L14.292,57.194C12.473,56.79 10.715,56.151 9.061,55.294L9.061,55.294Z" fill="#C6C6C6"/>
<path d="M9.061,55.979L9.061,56.372C9.061,56.372 10.516,57.427 14.292,58.274L14.292,57.879C12.473,57.475 10.715,56.837 9.061,55.979L9.061,55.979Z" fill="#C6C6C6"/>
<path d="M9.061,56.662L9.061,57.057C9.061,57.057 10.753,58.084 14.292,58.959L14.292,58.564C12.473,58.16 10.714,57.521 9.061,56.662Z" fill="#C6C6C6"/>
</g>
<path d="M26.255,35.927L21.613,37.224C21.613,37.224 18.653,37.854 18.676,41.847L20.224,41.847C20.224,41.847 20.309,39.322 22.495,38.887L25.634,38.405L26.255,35.927Z" fill="#2D2D2D"/>
<path d="M20.522,46.915L17.805,46.174L17.805,41.034L20.522,41.775L20.522,46.915Z" fill="#2D2D2D"/>
<path d="M20.522,41.775L20.811,41.611L20.811,46.488L20.522,46.915L20.522,41.775Z" fill="#0E0E0C"/>
<path d="M17.805,41.034L18.187,40.927L20.811,41.611L20.522,41.775L17.805,41.034Z" fill="#414142"/>
<path d="M31.649,55.755C31.649,55.755 30.582,49.926 35.128,47.51C35.128,47.51 39.452,44.678 40.214,50.43L31.649,55.755Z" fill="#181817"/>
<path d="M58.297,40.146C58.297,40.146 57.23,34.317 61.776,31.901C61.776,31.901 66.101,29.069 66.863,34.821L58.297,40.146Z" fill="#181817"/>
<path d="M67.759,34.462C67.759,34.462 66.692,28.631 71.24,26.217C71.24,26.217 75.562,23.383 76.324,29.137L67.759,34.462Z" fill="#181817"/>
<path d="M20.279,25.201L28.682,28.403C28.682,28.403 31.762,24.83 38.684,22.399L29.98,19.598C29.98,19.598 26.748,19.886 20.279,25.201Z" fill="#2D2D2D"/>
<path d="M28.682,28.405L38.684,23.282L38.684,22.394C38.684,22.394 31.421,24.9 28.682,28.405Z" fill="#050502"/>
<path d="M48.458,11.056L56.861,14.258C56.861,14.258 59.939,10.685 66.863,8.254L58.158,5.46C58.158,5.46 54.925,5.744 48.458,11.056Z" fill="#2D2D2D"/>
<path d="M56.861,14.26L66.863,9.138L66.863,8.256C66.863,8.256 59.599,10.756 56.861,14.26Z" fill="#050502"/>
<path d="M65.104,0.651C65.104,0.651 66.348,-0.367 67.646,0.145L78.796,5.033C78.796,5.033 78.583,4.971 77.69,5.46L65.104,0.651Z" fill="#403F40"/>
<path d="M39.29,54.075C38.223,56.743 35.948,58.344 34.195,57.646C32.443,56.948 31.884,54.221 32.945,51.553C34.005,48.885 36.287,47.284 38.04,47.982C39.792,48.68 40.351,51.407 39.29,54.075Z" fill="#3F3E3F"/>
<path d="M37.775,53.595C37.22,54.991 36.029,55.826 35.111,55.461C34.193,55.096 33.903,53.672 34.458,52.276C35.013,50.88 36.206,50.046 37.122,50.411C38.037,50.776 38.33,52.204 37.775,53.595Z" fill="#181817"/>
<path d="M37.677,53.29C37.186,54.524 36.131,55.262 35.329,54.94C34.526,54.618 34.262,53.358 34.75,52.125C35.239,50.891 36.296,50.152 37.098,50.475C37.901,50.797 38.168,52.058 37.677,53.29Z" fill="#DADADA"/>
<path d="M37.677,53.29C37.186,54.524 36.131,55.262 35.329,54.94C34.526,54.618 34.262,53.358 34.75,52.125C35.239,50.891 36.296,50.152 37.098,50.475C37.901,50.797 38.168,52.058 37.677,53.29Z" fill="#DADADA"/>
<path d="M37.149,53.023C36.821,53.849 36.146,54.355 35.64,54.154C35.135,53.954 35,53.121 35.32,52.295C35.64,51.469 36.323,50.966 36.829,51.166C37.335,51.367 37.478,52.204 37.149,53.023Z" fill="#878787"/>
<path d="M36.379,50.84C36.379,50.873 36.369,50.906 36.351,50.933C36.332,50.961 36.306,50.983 36.275,50.995C36.244,51.008 36.21,51.012 36.177,51.005C36.145,50.999 36.115,50.982 36.091,50.959C36.067,50.935 36.051,50.905 36.045,50.873C36.038,50.84 36.042,50.806 36.055,50.775C36.067,50.744 36.089,50.718 36.117,50.699C36.144,50.681 36.177,50.671 36.21,50.671C36.232,50.671 36.254,50.675 36.275,50.684C36.295,50.692 36.314,50.705 36.33,50.72C36.345,50.736 36.358,50.755 36.366,50.775C36.375,50.796 36.379,50.818 36.379,50.84Z" fill="#DADADA"/>
<path d="M36.238,50.846C36.251,50.86 36.268,50.869 36.287,50.873C36.305,50.877 36.325,50.876 36.343,50.87C36.346,50.852 36.346,50.834 36.343,50.816C36.343,50.784 36.33,50.752 36.307,50.729C36.285,50.705 36.254,50.691 36.221,50.69C36.204,50.714 36.197,50.743 36.2,50.771C36.203,50.8 36.217,50.827 36.238,50.846L36.238,50.846Z" fill="#FFFFFF"/>
<path d="M36.212,50.884C36.187,50.855 36.172,50.819 36.17,50.78C36.167,50.742 36.177,50.704 36.198,50.671C36.17,50.675 36.144,50.685 36.122,50.702C36.1,50.718 36.082,50.739 36.07,50.764C36.059,50.789 36.053,50.816 36.054,50.844C36.056,50.871 36.064,50.898 36.078,50.922C36.092,50.945 36.112,50.965 36.136,50.979C36.159,50.993 36.186,51.001 36.214,51.002C36.241,51.003 36.268,50.998 36.293,50.986C36.318,50.974 36.339,50.956 36.355,50.934C36.329,50.94 36.302,50.938 36.277,50.929C36.252,50.921 36.229,50.905 36.212,50.884L36.212,50.884Z" fill="#C6C6C6"/>
<path d="M37.173,50.782C37.173,50.827 37.155,50.87 37.124,50.901C37.092,50.933 37.049,50.951 37.004,50.951C36.96,50.951 36.917,50.933 36.885,50.901C36.853,50.87 36.836,50.827 36.836,50.782C36.836,50.737 36.853,50.694 36.885,50.663C36.917,50.631 36.96,50.613 37.004,50.613C37.049,50.613 37.092,50.631 37.124,50.663C37.155,50.694 37.173,50.737 37.173,50.782L37.173,50.782Z" fill="#DADADA"/>
<path d="M37.032,50.791C37.046,50.804 37.063,50.813 37.081,50.817C37.099,50.821 37.119,50.82 37.137,50.814C37.14,50.796 37.14,50.778 37.137,50.761C37.137,50.728 37.124,50.696 37.101,50.672C37.079,50.649 37.048,50.634 37.015,50.633C36.998,50.657 36.99,50.686 36.993,50.715C36.997,50.744 37.01,50.771 37.032,50.791Z" fill="#FFFFFF"/>
<path d="M36.996,50.829C36.972,50.799 36.957,50.763 36.955,50.724C36.953,50.686 36.963,50.648 36.983,50.616C36.955,50.619 36.928,50.629 36.906,50.645C36.883,50.662 36.864,50.683 36.852,50.709C36.839,50.734 36.834,50.762 36.835,50.79C36.836,50.818 36.844,50.845 36.858,50.869C36.873,50.893 36.893,50.914 36.917,50.928C36.941,50.942 36.969,50.95 36.997,50.951C37.025,50.953 37.053,50.947 37.078,50.934C37.103,50.922 37.125,50.903 37.141,50.88C37.114,50.886 37.087,50.884 37.061,50.875C37.036,50.866 37.013,50.85 36.996,50.829L36.996,50.829Z" fill="#C6C6C6"/>
<path d="M37.707,51.431C37.707,51.464 37.697,51.497 37.678,51.525C37.66,51.552 37.633,51.574 37.602,51.587C37.572,51.599 37.538,51.603 37.505,51.596C37.472,51.59 37.442,51.574 37.419,51.55C37.395,51.527 37.379,51.497 37.373,51.464C37.366,51.431 37.369,51.397 37.382,51.366C37.395,51.336 37.417,51.309 37.444,51.291C37.472,51.272 37.505,51.262 37.538,51.262C37.56,51.262 37.582,51.267 37.602,51.275C37.623,51.284 37.641,51.296 37.657,51.312C37.673,51.327 37.685,51.346 37.694,51.366C37.702,51.387 37.707,51.409 37.707,51.431L37.707,51.431Z" fill="#DADADA"/>
<path d="M37.568,51.437C37.581,51.451 37.597,51.461 37.615,51.465C37.633,51.47 37.653,51.469 37.67,51.463C37.679,51.446 37.683,51.428 37.683,51.41C37.683,51.377 37.67,51.345 37.648,51.321C37.625,51.297 37.594,51.283 37.561,51.282C37.543,51.304 37.533,51.332 37.534,51.361C37.535,51.39 37.547,51.417 37.568,51.437L37.568,51.437Z" fill="#FFFFFF"/>
<path d="M37.531,51.478C37.507,51.448 37.492,51.412 37.49,51.373C37.487,51.335 37.498,51.297 37.519,51.264C37.477,51.271 37.44,51.293 37.413,51.325C37.387,51.358 37.374,51.399 37.376,51.441C37.379,51.483 37.397,51.522 37.426,51.551C37.456,51.581 37.496,51.598 37.538,51.6C37.565,51.6 37.591,51.594 37.615,51.581C37.639,51.569 37.659,51.551 37.674,51.529C37.648,51.535 37.621,51.533 37.596,51.524C37.571,51.515 37.548,51.499 37.531,51.478L37.531,51.478Z" fill="#C6C6C6"/>
<path d="M37.794,52.417C37.794,52.462 37.776,52.505 37.745,52.536C37.713,52.568 37.67,52.586 37.625,52.586C37.581,52.586 37.538,52.568 37.506,52.536C37.475,52.505 37.457,52.462 37.457,52.417C37.457,52.372 37.475,52.329 37.506,52.298C37.538,52.266 37.581,52.248 37.625,52.248C37.67,52.248 37.713,52.266 37.745,52.298C37.776,52.329 37.794,52.372 37.794,52.417Z" fill="#DADADA"/>
<path d="M37.655,52.417C37.668,52.431 37.685,52.44 37.703,52.444C37.721,52.448 37.74,52.447 37.758,52.441C37.767,52.424 37.771,52.406 37.771,52.387C37.77,52.354 37.757,52.323 37.734,52.299C37.711,52.276 37.68,52.262 37.647,52.261C37.628,52.284 37.619,52.312 37.621,52.341C37.622,52.37 37.635,52.397 37.655,52.417L37.655,52.417Z" fill="#FFFFFF"/>
<path d="M37.619,52.46C37.594,52.43 37.579,52.394 37.576,52.355C37.574,52.317 37.583,52.279 37.604,52.246C37.56,52.249 37.519,52.269 37.489,52.303C37.46,52.336 37.445,52.379 37.448,52.423C37.451,52.468 37.471,52.509 37.505,52.538C37.538,52.567 37.581,52.582 37.625,52.579C37.652,52.58 37.679,52.573 37.702,52.561C37.726,52.549 37.747,52.531 37.762,52.509C37.736,52.516 37.709,52.515 37.683,52.506C37.658,52.497 37.635,52.481 37.619,52.46L37.619,52.46Z" fill="#C6C6C6"/>
<path d="M37.538,53.211C37.538,53.245 37.528,53.277 37.509,53.305C37.491,53.333 37.464,53.354 37.433,53.367C37.402,53.38 37.368,53.383 37.336,53.376C37.303,53.37 37.273,53.353 37.249,53.33C37.226,53.306 37.21,53.275 37.204,53.243C37.197,53.21 37.201,53.176 37.214,53.145C37.227,53.114 37.249,53.088 37.277,53.07C37.305,53.052 37.338,53.042 37.371,53.042C37.416,53.043 37.458,53.061 37.489,53.093C37.52,53.124 37.538,53.167 37.538,53.211L37.538,53.211Z" fill="#DADADA"/>
<path d="M37.399,53.217C37.412,53.232 37.429,53.241 37.448,53.246C37.466,53.25 37.486,53.248 37.504,53.241C37.507,53.223 37.507,53.205 37.504,53.188C37.504,53.155 37.491,53.123 37.468,53.1C37.446,53.076 37.415,53.063 37.382,53.062C37.365,53.085 37.358,53.114 37.361,53.143C37.364,53.172 37.378,53.198 37.399,53.217Z" fill="#FFFFFF"/>
<path d="M37.363,53.258C37.339,53.228 37.324,53.192 37.322,53.153C37.32,53.115 37.33,53.077 37.35,53.045C37.322,53.048 37.296,53.058 37.273,53.074C37.25,53.091 37.231,53.112 37.219,53.138C37.207,53.163 37.201,53.191 37.202,53.219C37.203,53.247 37.211,53.274 37.225,53.298C37.24,53.323 37.26,53.343 37.284,53.357C37.308,53.371 37.336,53.379 37.364,53.38C37.392,53.382 37.42,53.376 37.445,53.363C37.47,53.351 37.492,53.332 37.508,53.309C37.481,53.315 37.454,53.313 37.428,53.304C37.403,53.295 37.38,53.279 37.363,53.258Z" fill="#C6C6C6"/>
<path d="M37.117,53.973C37.118,54.007 37.108,54.039 37.09,54.068C37.072,54.096 37.045,54.118 37.014,54.131C36.983,54.144 36.949,54.147 36.916,54.141C36.884,54.134 36.853,54.118 36.83,54.094C36.806,54.071 36.79,54.04 36.783,54.008C36.777,53.975 36.78,53.941 36.793,53.91C36.806,53.879 36.828,53.852 36.856,53.834C36.885,53.816 36.917,53.806 36.951,53.807C36.995,53.807 37.037,53.824 37.069,53.855C37.1,53.887 37.117,53.929 37.117,53.973L37.117,53.973Z" fill="#DADADA"/>
<path d="M36.979,53.982C36.992,53.995 37.009,54.004 37.027,54.008C37.045,54.012 37.064,54.011 37.081,54.005C37.09,53.989 37.094,53.97 37.094,53.952C37.093,53.919 37.081,53.888 37.058,53.864C37.036,53.84 37.005,53.826 36.972,53.824C36.954,53.846 36.944,53.875 36.946,53.904C36.947,53.933 36.959,53.961 36.979,53.982L36.979,53.982Z" fill="#FFFFFF"/>
<path d="M36.942,54.02C36.918,53.99 36.904,53.954 36.902,53.915C36.899,53.877 36.909,53.839 36.93,53.807C36.888,53.813 36.851,53.835 36.824,53.868C36.798,53.9 36.785,53.942 36.788,53.984C36.79,54.026 36.809,54.065 36.839,54.094C36.869,54.124 36.909,54.14 36.951,54.142C36.978,54.141 37.004,54.135 37.028,54.123C37.051,54.11 37.072,54.093 37.088,54.071C37.061,54.077 37.033,54.075 37.008,54.066C36.982,54.057 36.96,54.041 36.942,54.02Z" fill="#C6C6C6"/>
<path d="M36.379,54.519C36.379,54.553 36.369,54.585 36.351,54.613C36.332,54.641 36.306,54.662 36.275,54.675C36.244,54.688 36.21,54.691 36.177,54.685C36.145,54.678 36.115,54.662 36.091,54.639C36.067,54.615 36.051,54.585 36.045,54.552C36.038,54.52 36.042,54.486 36.055,54.455C36.067,54.424 36.089,54.398 36.117,54.379C36.144,54.361 36.177,54.351 36.21,54.351C36.255,54.351 36.298,54.369 36.33,54.4C36.361,54.432 36.379,54.475 36.379,54.519L36.379,54.519Z" fill="#DADADA"/>
<path d="M36.238,54.526C36.251,54.539 36.268,54.549 36.287,54.553C36.305,54.557 36.325,54.556 36.343,54.549C36.346,54.532 36.346,54.514 36.343,54.496C36.343,54.463 36.33,54.432 36.307,54.408C36.285,54.385 36.254,54.371 36.221,54.37C36.204,54.394 36.197,54.422 36.2,54.451C36.203,54.48 36.217,54.507 36.238,54.526L36.238,54.526Z" fill="#FFFFFF"/>
<path d="M36.212,54.564C36.187,54.535 36.172,54.498 36.17,54.46C36.167,54.422 36.177,54.383 36.198,54.351C36.17,54.355 36.144,54.365 36.122,54.381C36.1,54.398 36.082,54.419 36.07,54.444C36.059,54.469 36.053,54.496 36.054,54.524C36.056,54.551 36.064,54.578 36.078,54.601C36.092,54.625 36.112,54.645 36.136,54.659C36.159,54.673 36.186,54.681 36.214,54.682C36.241,54.683 36.268,54.677 36.293,54.666C36.318,54.654 36.339,54.636 36.355,54.613C36.329,54.619 36.302,54.618 36.277,54.609C36.252,54.601 36.229,54.585 36.212,54.564L36.212,54.564Z" fill="#C6C6C6"/>
<path d="M35.623,54.575C35.623,54.608 35.613,54.641 35.595,54.669C35.576,54.697 35.55,54.718 35.519,54.731C35.488,54.744 35.454,54.747 35.421,54.74C35.388,54.733 35.358,54.717 35.335,54.693C35.311,54.67 35.295,54.639 35.289,54.606C35.283,54.574 35.286,54.54 35.3,54.509C35.313,54.478 35.335,54.452 35.363,54.434C35.391,54.415 35.423,54.406 35.457,54.406C35.501,54.407 35.544,54.425 35.575,54.456C35.606,54.488 35.623,54.531 35.623,54.575L35.623,54.575Z" fill="#DADADA"/>
<path d="M35.485,54.581C35.498,54.595 35.514,54.604 35.532,54.608C35.551,54.612 35.57,54.611 35.587,54.605C35.596,54.588 35.6,54.57 35.6,54.551C35.6,54.519 35.587,54.487 35.564,54.464C35.542,54.44 35.511,54.427 35.478,54.426C35.46,54.448 35.45,54.476 35.451,54.505C35.452,54.534 35.464,54.561 35.485,54.581L35.485,54.581Z" fill="#FFFFFF"/>
<path d="M35.448,54.62C35.424,54.59 35.409,54.554 35.407,54.515C35.404,54.477 35.414,54.439 35.436,54.406C35.394,54.413 35.356,54.435 35.33,54.467C35.304,54.5 35.291,54.542 35.294,54.584C35.296,54.625 35.314,54.665 35.345,54.694C35.375,54.723 35.415,54.74 35.457,54.741C35.484,54.741 35.51,54.734 35.534,54.721C35.557,54.709 35.578,54.691 35.593,54.669C35.567,54.676 35.539,54.675 35.513,54.666C35.488,54.657 35.465,54.641 35.448,54.62L35.448,54.62Z" fill="#C6C6C6"/>
<path d="M35.079,54.031C35.079,54.064 35.069,54.097 35.051,54.124C35.032,54.152 35.006,54.174 34.975,54.186C34.944,54.199 34.91,54.203 34.878,54.196C34.845,54.19 34.815,54.174 34.791,54.15C34.768,54.126 34.752,54.096 34.745,54.064C34.739,54.031 34.742,53.997 34.755,53.966C34.767,53.935 34.789,53.909 34.817,53.89C34.844,53.872 34.877,53.862 34.91,53.862C34.933,53.862 34.955,53.866 34.975,53.874C34.996,53.883 35.015,53.895 35.03,53.911C35.046,53.927 35.058,53.945 35.067,53.966C35.075,53.986 35.079,54.008 35.079,54.031Z" fill="#DADADA"/>
<path d="M34.932,54.037C34.945,54.05 34.961,54.06 34.98,54.064C34.998,54.068 35.017,54.067 35.034,54.06C35.043,54.044 35.047,54.026 35.047,54.007C35.047,53.974 35.033,53.943 35.01,53.919C34.987,53.896 34.956,53.882 34.923,53.881C34.905,53.904 34.896,53.932 34.897,53.961C34.899,53.99 34.911,54.017 34.932,54.037L34.932,54.037Z" fill="#FFFFFF"/>
<path d="M34.904,54.076C34.879,54.046 34.864,54.01 34.861,53.971C34.859,53.933 34.868,53.895 34.889,53.862C34.845,53.865 34.804,53.885 34.774,53.918C34.745,53.952 34.73,53.995 34.733,54.039C34.736,54.083 34.756,54.125 34.79,54.154C34.823,54.183 34.866,54.198 34.91,54.195C34.937,54.195 34.964,54.189 34.987,54.177C35.011,54.164 35.032,54.147 35.047,54.125C35.021,54.131 34.994,54.13 34.968,54.121C34.943,54.113 34.921,54.097 34.904,54.076L34.904,54.076Z" fill="#C6C6C6"/>
<path d="M34.932,53.119C34.932,53.153 34.922,53.185 34.903,53.213C34.885,53.241 34.858,53.262 34.828,53.275C34.797,53.288 34.763,53.291 34.73,53.285C34.698,53.278 34.668,53.262 34.644,53.239C34.62,53.215 34.604,53.185 34.598,53.152C34.591,53.119 34.595,53.086 34.607,53.055C34.62,53.024 34.642,52.998 34.669,52.979C34.697,52.961 34.73,52.951 34.763,52.951C34.808,52.951 34.851,52.968 34.882,53C34.914,53.032 34.932,53.075 34.932,53.119L34.932,53.119Z" fill="#DADADA"/>
<path d="M34.797,53.126C34.81,53.139 34.827,53.148 34.845,53.153C34.863,53.157 34.882,53.156 34.9,53.149C34.907,53.132 34.91,53.114 34.91,53.096C34.91,53.063 34.898,53.032 34.875,53.008C34.852,52.985 34.821,52.971 34.789,52.97C34.77,52.992 34.761,53.021 34.763,53.049C34.764,53.078 34.777,53.105 34.797,53.126L34.797,53.126Z" fill="#FFFFFF"/>
<path d="M34.761,53.164C34.736,53.135 34.721,53.098 34.718,53.06C34.716,53.021 34.725,52.983 34.746,52.951C34.702,52.954 34.661,52.974 34.631,53.007C34.602,53.04 34.587,53.084 34.59,53.128C34.593,53.172 34.613,53.213 34.647,53.242C34.68,53.272 34.723,53.286 34.767,53.284C34.794,53.284 34.821,53.278 34.844,53.265C34.868,53.253 34.889,53.235 34.904,53.213C34.878,53.22 34.851,53.219 34.825,53.21C34.8,53.201 34.778,53.185 34.761,53.164Z" fill="#C6C6C6"/>
<path d="M35.177,52.204C35.177,52.237 35.167,52.27 35.149,52.298C35.13,52.325 35.104,52.347 35.073,52.36C35.042,52.372 35.008,52.375 34.975,52.369C34.942,52.362 34.912,52.346 34.889,52.322C34.865,52.298 34.849,52.268 34.843,52.235C34.837,52.202 34.84,52.168 34.853,52.138C34.867,52.107 34.889,52.081 34.917,52.062C34.945,52.044 34.977,52.035 35.011,52.035C35.033,52.035 35.055,52.039 35.075,52.048C35.095,52.056 35.114,52.069 35.129,52.085C35.145,52.1 35.157,52.119 35.165,52.139C35.173,52.16 35.178,52.182 35.177,52.204L35.177,52.204Z" fill="#DADADA"/>
<path d="M35.038,52.216C35.051,52.23 35.068,52.239 35.086,52.243C35.104,52.248 35.123,52.246 35.141,52.24C35.15,52.224 35.154,52.205 35.154,52.187C35.154,52.154 35.141,52.123 35.118,52.099C35.096,52.076 35.065,52.062 35.032,52.061C35.014,52.083 35.005,52.111 35.006,52.14C35.007,52.168 35.019,52.196 35.038,52.216Z" fill="#FFFFFF"/>
<path d="M35.002,52.255C34.977,52.225 34.963,52.189 34.961,52.15C34.958,52.112 34.968,52.074 34.989,52.041C34.945,52.044 34.904,52.064 34.875,52.098C34.846,52.131 34.831,52.174 34.834,52.219C34.836,52.263 34.857,52.304 34.89,52.333C34.923,52.362 34.967,52.377 35.011,52.374C35.037,52.374 35.064,52.368 35.087,52.355C35.111,52.343 35.132,52.326 35.147,52.304C35.121,52.311 35.093,52.31 35.067,52.301C35.042,52.292 35.019,52.276 35.002,52.255L35.002,52.255Z" fill="#C6C6C6"/>
<path d="M35.64,51.395C35.64,51.428 35.631,51.461 35.612,51.488C35.593,51.516 35.567,51.538 35.536,51.55C35.506,51.563 35.472,51.567 35.439,51.56C35.406,51.554 35.376,51.538 35.353,51.514C35.329,51.49 35.313,51.46 35.306,51.428C35.3,51.395 35.303,51.361 35.316,51.33C35.329,51.299 35.35,51.273 35.378,51.254C35.406,51.236 35.438,51.226 35.472,51.226C35.517,51.226 35.559,51.244 35.591,51.275C35.623,51.307 35.64,51.35 35.64,51.395L35.64,51.395Z" fill="#DADADA"/>
<path d="M35.5,51.401C35.513,51.415 35.53,51.424 35.548,51.428C35.567,51.432 35.586,51.431 35.604,51.424C35.608,51.407 35.608,51.389 35.604,51.371C35.604,51.338 35.591,51.307 35.569,51.284C35.546,51.26 35.515,51.246 35.482,51.245C35.466,51.269 35.458,51.298 35.461,51.326C35.464,51.355 35.478,51.382 35.5,51.401L35.5,51.401Z" fill="#FFFFFF"/>
<path d="M35.463,51.44C35.438,51.41 35.424,51.373 35.422,51.335C35.419,51.296 35.429,51.258 35.45,51.226C35.423,51.23 35.397,51.24 35.375,51.257C35.353,51.273 35.335,51.294 35.323,51.319C35.311,51.344 35.306,51.372 35.307,51.399C35.309,51.426 35.317,51.453 35.331,51.477C35.345,51.5 35.365,51.52 35.389,51.534C35.412,51.548 35.439,51.556 35.466,51.557C35.494,51.558 35.521,51.553 35.546,51.541C35.571,51.529 35.592,51.511 35.608,51.489C35.582,51.495 35.554,51.494 35.529,51.486C35.503,51.477 35.48,51.461 35.463,51.44L35.463,51.44Z" fill="#C6C6C6"/>
<path d="M36.889,52.921C36.654,53.51 36.172,53.873 35.809,53.73C35.446,53.587 35.344,52.989 35.579,52.4C35.813,51.811 36.298,51.448 36.659,51.591C37.019,51.734 37.124,52.33 36.889,52.921Z" fill="#EDEDED"/>
<path d="M65.938,38.467C64.871,41.135 62.596,42.735 60.844,42.037C59.091,41.339 58.532,38.612 59.593,35.944C60.654,33.276 62.935,31.675 64.688,32.373C66.44,33.071 66.999,35.798 65.938,38.467Z" fill="#3F3E3F"/>
<path d="M64.423,37.986C63.868,39.382 62.677,40.217 61.759,39.854C60.841,39.491 60.551,38.063 61.106,36.667C61.661,35.271 62.854,34.437 63.77,34.802C64.685,35.167 64.978,36.59 64.423,37.986Z" fill="#181817"/>
<path d="M64.325,37.69C63.834,38.923 62.779,39.662 61.977,39.34C61.174,39.017 60.91,37.758 61.398,36.524C61.887,35.291 62.944,34.552 63.746,34.874C64.549,35.197 64.814,36.45 64.325,37.69Z" fill="#DADADA"/>
<path d="M64.325,37.69C63.834,38.923 62.779,39.662 61.977,39.34C61.174,39.017 60.91,37.758 61.398,36.524C61.887,35.291 62.944,34.552 63.746,34.874C64.549,35.197 64.814,36.45 64.325,37.69Z" fill="#DADADA"/>
<path d="M63.798,37.416C63.469,38.24 62.794,38.746 62.289,38.546C61.783,38.345 61.648,37.512 61.968,36.689C62.289,35.865 62.972,35.357 63.477,35.557C63.983,35.758 64.126,36.59 63.798,37.416Z" fill="#878787"/>
<path d="M63.027,35.231C63.027,35.264 63.017,35.297 62.999,35.324C62.98,35.352 62.954,35.374 62.923,35.387C62.892,35.399 62.858,35.403 62.826,35.396C62.793,35.39 62.763,35.374 62.739,35.35C62.716,35.326 62.7,35.296 62.693,35.264C62.687,35.231 62.69,35.197 62.703,35.166C62.715,35.135 62.737,35.109 62.765,35.091C62.792,35.072 62.825,35.062 62.858,35.062C62.903,35.062 62.946,35.08 62.978,35.112C63.009,35.143 63.027,35.186 63.027,35.231L63.027,35.231Z" fill="#DADADA"/>
<path d="M62.893,35.237C62.906,35.251 62.923,35.26 62.941,35.264C62.96,35.269 62.979,35.267 62.997,35.261C63.004,35.244 63.008,35.226 63.008,35.207C63.008,35.175 62.995,35.143 62.973,35.12C62.95,35.096 62.919,35.082 62.886,35.081C62.868,35.104 62.859,35.132 62.86,35.16C62.861,35.189 62.873,35.216 62.893,35.237L62.893,35.237Z" fill="#FFFFFF"/>
<path d="M62.852,35.276C62.827,35.246 62.812,35.21 62.809,35.171C62.807,35.133 62.816,35.095 62.837,35.062C62.81,35.066 62.784,35.076 62.762,35.093C62.74,35.109 62.722,35.131 62.71,35.155C62.698,35.18 62.693,35.208 62.694,35.235C62.695,35.263 62.703,35.289 62.718,35.313C62.732,35.336 62.752,35.356 62.775,35.37C62.799,35.384 62.826,35.392 62.853,35.393C62.881,35.395 62.908,35.389 62.933,35.377C62.957,35.365 62.979,35.347 62.995,35.325C62.969,35.331 62.942,35.33 62.916,35.321C62.891,35.313 62.869,35.297 62.852,35.276L62.852,35.276Z" fill="#C6C6C6"/>
<path d="M63.819,35.173C63.819,35.207 63.81,35.24 63.791,35.268C63.773,35.296 63.747,35.318 63.716,35.331C63.685,35.344 63.651,35.347 63.618,35.341C63.585,35.334 63.555,35.318 63.531,35.294C63.507,35.271 63.491,35.241 63.485,35.208C63.478,35.175 63.482,35.141 63.495,35.11C63.508,35.079 63.53,35.053 63.558,35.034C63.586,35.016 63.619,35.006 63.652,35.007C63.697,35.007 63.739,35.024 63.77,35.055C63.801,35.087 63.819,35.129 63.819,35.173Z" fill="#DADADA"/>
<path d="M63.68,35.182C63.693,35.195 63.71,35.204 63.728,35.208C63.746,35.212 63.765,35.211 63.783,35.205C63.791,35.189 63.796,35.17 63.795,35.152C63.795,35.119 63.783,35.087 63.76,35.063C63.738,35.04 63.707,35.025 63.674,35.024C63.655,35.046 63.646,35.075 63.647,35.104C63.648,35.133 63.66,35.161 63.68,35.182L63.68,35.182Z" fill="#FFFFFF"/>
<path d="M63.644,35.22C63.62,35.19 63.606,35.154 63.603,35.115C63.601,35.077 63.611,35.039 63.631,35.007C63.603,35.01 63.577,35.02 63.554,35.037C63.531,35.053 63.512,35.075 63.5,35.1C63.488,35.125 63.482,35.153 63.483,35.181C63.484,35.209 63.492,35.236 63.507,35.26C63.521,35.285 63.541,35.305 63.565,35.319C63.589,35.333 63.617,35.341 63.645,35.343C63.673,35.344 63.701,35.338 63.726,35.325C63.751,35.313 63.773,35.294 63.789,35.271C63.762,35.277 63.735,35.275 63.709,35.266C63.684,35.257 63.661,35.241 63.644,35.22L63.644,35.22Z" fill="#C6C6C6"/>
<path d="M64.355,35.822C64.357,35.846 64.355,35.87 64.348,35.892C64.341,35.915 64.329,35.936 64.313,35.953C64.297,35.971 64.278,35.985 64.256,35.995C64.234,36.005 64.211,36.01 64.187,36.01C64.163,36.01 64.14,36.005 64.118,35.995C64.097,35.985 64.077,35.971 64.061,35.953C64.046,35.936 64.034,35.915 64.026,35.892C64.019,35.87 64.017,35.846 64.02,35.822C64.017,35.798 64.019,35.775 64.026,35.752C64.034,35.729 64.046,35.708 64.061,35.691C64.077,35.673 64.097,35.659 64.118,35.649C64.14,35.639 64.163,35.634 64.187,35.634C64.211,35.634 64.234,35.639 64.256,35.649C64.278,35.659 64.297,35.673 64.313,35.691C64.329,35.708 64.341,35.729 64.348,35.752C64.355,35.775 64.357,35.798 64.355,35.822L64.355,35.822Z" fill="#DADADA"/>
<path d="M64.216,35.828C64.229,35.842 64.245,35.852 64.263,35.856C64.282,35.861 64.301,35.86 64.318,35.854C64.327,35.837 64.331,35.819 64.331,35.801C64.331,35.768 64.319,35.736 64.296,35.712C64.273,35.688 64.242,35.674 64.21,35.673C64.191,35.695 64.181,35.723 64.182,35.752C64.184,35.781 64.196,35.808 64.216,35.828L64.216,35.828Z" fill="#FFFFFF"/>
<path d="M64.173,35.869C64.148,35.84 64.134,35.803 64.132,35.764C64.129,35.726 64.139,35.688 64.16,35.656C64.119,35.662 64.081,35.684 64.055,35.717C64.029,35.749 64.016,35.791 64.018,35.833C64.021,35.875 64.039,35.914 64.07,35.943C64.1,35.973 64.14,35.989 64.182,35.991C64.208,35.991 64.234,35.984 64.258,35.972C64.281,35.96 64.301,35.942 64.316,35.92C64.29,35.926 64.263,35.924 64.237,35.915C64.212,35.906 64.19,35.89 64.173,35.869Z" fill="#C6C6C6"/>
<path d="M64.442,36.806C64.445,36.83 64.442,36.853 64.435,36.876C64.428,36.899 64.416,36.92 64.4,36.937C64.385,36.955 64.365,36.969 64.343,36.979C64.322,36.989 64.298,36.994 64.275,36.994C64.251,36.994 64.227,36.989 64.206,36.979C64.184,36.969 64.165,36.955 64.149,36.937C64.133,36.92 64.121,36.899 64.114,36.876C64.107,36.853 64.104,36.83 64.107,36.806C64.104,36.782 64.107,36.758 64.114,36.736C64.121,36.713 64.133,36.692 64.149,36.675C64.165,36.657 64.184,36.643 64.206,36.633C64.227,36.623 64.251,36.618 64.275,36.618C64.298,36.618 64.322,36.623 64.343,36.633C64.365,36.643 64.385,36.657 64.4,36.675C64.416,36.692 64.428,36.713 64.435,36.736C64.442,36.758 64.445,36.782 64.442,36.806L64.442,36.806Z" fill="#DADADA"/>
<path d="M64.303,36.812C64.316,36.826 64.333,36.835 64.351,36.839C64.369,36.843 64.388,36.842 64.406,36.836C64.415,36.819 64.419,36.801 64.419,36.782C64.418,36.75 64.405,36.718 64.382,36.695C64.359,36.671 64.328,36.658 64.295,36.656C64.277,36.679 64.267,36.707 64.269,36.736C64.27,36.765 64.283,36.792 64.303,36.812L64.303,36.812Z" fill="#FFFFFF"/>
<path d="M64.267,36.851C64.242,36.822 64.227,36.785 64.224,36.747C64.222,36.708 64.231,36.67 64.252,36.637C64.224,36.64 64.197,36.651 64.174,36.667C64.151,36.683 64.132,36.705 64.12,36.73C64.107,36.756 64.101,36.784 64.102,36.812C64.104,36.84 64.112,36.868 64.126,36.892C64.141,36.916 64.161,36.936 64.186,36.951C64.21,36.965 64.238,36.973 64.266,36.973C64.294,36.974 64.322,36.968 64.348,36.955C64.373,36.942 64.394,36.923 64.41,36.9C64.384,36.907 64.357,36.906 64.331,36.897C64.306,36.888 64.284,36.872 64.267,36.851L64.267,36.851Z" fill="#C6C6C6"/>
<path d="M64.188,37.602C64.188,37.635 64.178,37.668 64.16,37.696C64.141,37.723 64.115,37.745 64.084,37.758C64.053,37.771 64.019,37.774 63.987,37.767C63.954,37.761 63.924,37.745 63.9,37.721C63.877,37.698 63.861,37.668 63.854,37.635C63.848,37.602 63.851,37.568 63.864,37.538C63.877,37.507 63.898,37.48 63.926,37.462C63.954,37.443 63.986,37.433 64.02,37.433C64.064,37.434 64.107,37.452 64.138,37.483C64.17,37.515 64.188,37.558 64.188,37.602L64.188,37.602Z" fill="#DADADA"/>
<path d="M64.047,37.608C64.06,37.622 64.077,37.632 64.096,37.637C64.114,37.641 64.134,37.64 64.152,37.634C64.159,37.616 64.162,37.598 64.163,37.579C64.163,37.546 64.15,37.515 64.127,37.491C64.104,37.468 64.074,37.454 64.041,37.453C64.023,37.475 64.013,37.503 64.014,37.532C64.016,37.561 64.027,37.588 64.047,37.608L64.047,37.608Z" fill="#FFFFFF"/>
<path d="M64.011,37.649C63.987,37.619 63.973,37.583 63.97,37.544C63.968,37.506 63.978,37.468 63.998,37.436C63.97,37.439 63.944,37.449 63.921,37.465C63.898,37.482 63.879,37.503 63.867,37.529C63.855,37.554 63.849,37.582 63.85,37.61C63.851,37.638 63.859,37.665 63.874,37.689C63.888,37.714 63.908,37.734 63.932,37.748C63.957,37.762 63.984,37.77 64.012,37.771C64.04,37.773 64.068,37.767 64.093,37.754C64.118,37.742 64.14,37.723 64.156,37.7C64.13,37.706 64.102,37.704 64.076,37.695C64.051,37.686 64.028,37.67 64.011,37.649L64.011,37.649Z" fill="#C6C6C6"/>
<path d="M63.766,38.364C63.766,38.398 63.756,38.431 63.738,38.459C63.72,38.487 63.693,38.509 63.662,38.522C63.632,38.535 63.597,38.538 63.565,38.532C63.532,38.525 63.501,38.509 63.478,38.485C63.454,38.462 63.438,38.432 63.431,38.399C63.425,38.366 63.429,38.332 63.442,38.301C63.455,38.27 63.477,38.244 63.505,38.225C63.533,38.207 63.566,38.197 63.599,38.198C63.643,38.198 63.686,38.215 63.717,38.246C63.748,38.278 63.766,38.32 63.766,38.364Z" fill="#DADADA"/>
<path d="M63.627,38.373C63.64,38.386 63.657,38.395 63.675,38.399C63.693,38.403 63.712,38.402 63.729,38.396C63.738,38.38 63.742,38.361 63.742,38.343C63.742,38.31 63.729,38.279 63.706,38.255C63.684,38.231 63.653,38.217 63.62,38.215C63.602,38.237 63.592,38.266 63.593,38.295C63.594,38.324 63.606,38.352 63.627,38.373Z" fill="#FFFFFF"/>
<path d="M63.591,38.411C63.566,38.382 63.551,38.345 63.549,38.306C63.547,38.268 63.557,38.23 63.578,38.198C63.536,38.204 63.499,38.226 63.472,38.259C63.446,38.292 63.433,38.333 63.436,38.375C63.438,38.417 63.457,38.456 63.487,38.485C63.517,38.515 63.557,38.532 63.599,38.533C63.626,38.532 63.652,38.526 63.676,38.514C63.699,38.502 63.72,38.484 63.736,38.462C63.709,38.468 63.682,38.466 63.656,38.457C63.63,38.448 63.608,38.432 63.591,38.411Z" fill="#C6C6C6"/>
<path d="M63.027,38.91C63.027,38.944 63.017,38.976 62.999,39.004C62.98,39.032 62.954,39.053 62.923,39.066C62.892,39.079 62.858,39.082 62.826,39.076C62.793,39.069 62.763,39.053 62.739,39.03C62.716,39.006 62.7,38.976 62.693,38.943C62.687,38.911 62.69,38.877 62.703,38.846C62.715,38.815 62.737,38.789 62.765,38.77C62.792,38.752 62.825,38.742 62.858,38.742C62.903,38.742 62.946,38.76 62.978,38.791C63.009,38.823 63.027,38.866 63.027,38.91L63.027,38.91Z" fill="#DADADA"/>
<path d="M62.893,38.917C62.906,38.931 62.923,38.94 62.941,38.944C62.96,38.948 62.979,38.947 62.997,38.94C63.004,38.923 63.008,38.905 63.008,38.887C63.008,38.854 62.995,38.823 62.973,38.799C62.95,38.776 62.919,38.762 62.886,38.761C62.868,38.783 62.859,38.811 62.86,38.84C62.861,38.869 62.873,38.896 62.893,38.917L62.893,38.917Z" fill="#FFFFFF"/>
<path d="M62.852,38.955C62.827,38.926 62.812,38.889 62.809,38.851C62.807,38.813 62.816,38.774 62.837,38.742C62.81,38.746 62.784,38.756 62.762,38.772C62.74,38.789 62.722,38.81 62.71,38.835C62.698,38.86 62.693,38.887 62.694,38.915C62.695,38.942 62.703,38.969 62.718,38.993C62.732,39.016 62.752,39.036 62.775,39.05C62.799,39.064 62.826,39.072 62.853,39.073C62.881,39.074 62.908,39.069 62.933,39.057C62.957,39.045 62.979,39.027 62.995,39.004C62.969,39.011 62.942,39.01 62.916,39.001C62.891,38.992 62.869,38.976 62.852,38.955L62.852,38.955Z" fill="#C6C6C6"/>
<path d="M62.271,38.97C62.271,39.004 62.262,39.036 62.243,39.064C62.224,39.092 62.198,39.114 62.167,39.126C62.136,39.139 62.102,39.142 62.069,39.135C62.036,39.129 62.006,39.113 61.983,39.089C61.959,39.065 61.943,39.035 61.937,39.002C61.931,38.969 61.935,38.935 61.948,38.904C61.961,38.873 61.983,38.847 62.011,38.829C62.039,38.811 62.072,38.801 62.105,38.802C62.149,38.802 62.192,38.82 62.223,38.852C62.254,38.883 62.271,38.926 62.271,38.97Z" fill="#DADADA"/>
<path d="M62.133,38.97C62.146,38.984 62.162,38.993 62.18,38.997C62.199,39.001 62.218,39 62.235,38.994C62.244,38.977 62.248,38.959 62.248,38.94C62.248,38.908 62.235,38.876 62.213,38.853C62.19,38.829 62.159,38.816 62.126,38.814C62.108,38.837 62.098,38.865 62.099,38.894C62.1,38.922 62.112,38.95 62.133,38.97L62.133,38.97Z" fill="#FFFFFF"/>
<path d="M62.096,39.011C62.072,38.981 62.057,38.945 62.055,38.906C62.052,38.868 62.063,38.83 62.084,38.797C62.042,38.804 62.005,38.826 61.978,38.858C61.952,38.891 61.939,38.933 61.942,38.975C61.944,39.017 61.963,39.056 61.993,39.085C62.023,39.114 62.063,39.131 62.105,39.132C62.132,39.132 62.158,39.125 62.182,39.112C62.206,39.1 62.226,39.082 62.242,39.06C62.215,39.067 62.187,39.066 62.162,39.057C62.136,39.048 62.113,39.032 62.096,39.011L62.096,39.011Z" fill="#C6C6C6"/>
<path d="M61.727,38.422C61.727,38.455 61.717,38.488 61.699,38.515C61.68,38.543 61.654,38.565 61.623,38.577C61.592,38.59 61.558,38.594 61.526,38.587C61.493,38.581 61.463,38.564 61.439,38.541C61.416,38.517 61.4,38.487 61.393,38.455C61.387,38.422 61.39,38.388 61.403,38.357C61.416,38.326 61.437,38.3 61.465,38.281C61.493,38.263 61.525,38.253 61.559,38.253C61.581,38.253 61.603,38.257 61.623,38.265C61.644,38.274 61.663,38.286 61.678,38.302C61.694,38.317 61.707,38.336 61.715,38.357C61.723,38.377 61.727,38.399 61.727,38.422L61.727,38.422Z" fill="#DADADA"/>
<path d="M61.588,38.428C61.601,38.442 61.618,38.451 61.636,38.455C61.654,38.459 61.673,38.458 61.691,38.452C61.699,38.435 61.704,38.417 61.704,38.398C61.703,38.365 61.69,38.334 61.667,38.31C61.644,38.287 61.613,38.273 61.58,38.272C61.562,38.295 61.553,38.323 61.555,38.352C61.556,38.381 61.568,38.408 61.588,38.428Z" fill="#FFFFFF"/>
<path d="M61.552,38.466C61.527,38.437 61.512,38.401 61.509,38.362C61.507,38.324 61.516,38.285 61.537,38.253C61.493,38.256 61.452,38.276 61.423,38.309C61.393,38.343 61.379,38.386 61.381,38.43C61.384,38.474 61.404,38.516 61.438,38.545C61.471,38.574 61.514,38.589 61.559,38.586C61.585,38.586 61.612,38.58 61.636,38.568C61.659,38.555 61.68,38.538 61.695,38.516C61.669,38.522 61.642,38.521 61.616,38.512C61.591,38.503 61.569,38.488 61.552,38.466L61.552,38.466Z" fill="#C6C6C6"/>
<path d="M61.584,37.51C61.584,37.555 61.566,37.598 61.535,37.63C61.503,37.661 61.46,37.679 61.416,37.679C61.371,37.679 61.328,37.661 61.296,37.63C61.265,37.598 61.247,37.555 61.247,37.51C61.247,37.466 61.265,37.423 61.296,37.391C61.328,37.359 61.371,37.342 61.416,37.342C61.46,37.342 61.503,37.359 61.535,37.391C61.566,37.423 61.584,37.466 61.584,37.51Z" fill="#DADADA"/>
<path d="M61.443,37.517C61.457,37.53 61.474,37.539 61.492,37.544C61.511,37.548 61.53,37.547 61.548,37.54C61.555,37.523 61.559,37.505 61.559,37.487C61.559,37.454 61.546,37.423 61.523,37.399C61.501,37.376 61.47,37.362 61.437,37.361C61.419,37.383 61.409,37.411 61.411,37.44C61.412,37.469 61.423,37.496 61.443,37.517Z" fill="#FFFFFF"/>
<path d="M61.409,37.555C61.384,37.526 61.369,37.489 61.366,37.451C61.364,37.412 61.373,37.374 61.394,37.342C61.35,37.345 61.309,37.365 61.28,37.398C61.25,37.431 61.236,37.475 61.238,37.519C61.241,37.563 61.262,37.604 61.295,37.633C61.328,37.663 61.371,37.677 61.416,37.675C61.442,37.675 61.469,37.669 61.493,37.656C61.516,37.644 61.537,37.626 61.552,37.604C61.526,37.611 61.499,37.61 61.473,37.601C61.448,37.592 61.426,37.576 61.409,37.555L61.409,37.555Z" fill="#C6C6C6"/>
<path d="M61.825,36.601C61.825,36.635 61.815,36.667 61.797,36.695C61.778,36.723 61.752,36.744 61.721,36.757C61.69,36.77 61.656,36.773 61.623,36.766C61.59,36.76 61.56,36.743 61.537,36.72C61.513,36.696 61.497,36.666 61.491,36.633C61.485,36.6 61.489,36.566 61.502,36.535C61.515,36.504 61.537,36.478 61.565,36.46C61.593,36.442 61.625,36.432 61.659,36.432C61.703,36.433 61.746,36.451 61.777,36.483C61.808,36.514 61.825,36.557 61.825,36.601Z" fill="#DADADA"/>
<path d="M61.687,36.607C61.7,36.621 61.716,36.63 61.734,36.634C61.753,36.639 61.772,36.637 61.789,36.631C61.798,36.614 61.802,36.596 61.802,36.578C61.802,36.545 61.789,36.513 61.767,36.49C61.744,36.466 61.713,36.453 61.68,36.452C61.662,36.474 61.653,36.502 61.654,36.531C61.655,36.559 61.667,36.587 61.687,36.607Z" fill="#FFFFFF"/>
<path d="M61.65,36.646C61.626,36.616 61.611,36.58 61.609,36.541C61.606,36.503 61.616,36.465 61.638,36.432C61.596,36.439 61.558,36.461 61.532,36.494C61.506,36.526 61.493,36.568 61.496,36.61C61.498,36.652 61.516,36.691 61.547,36.72C61.577,36.749 61.617,36.766 61.659,36.768C61.686,36.767 61.712,36.76 61.736,36.747C61.759,36.735 61.78,36.717 61.795,36.695C61.769,36.702 61.741,36.701 61.716,36.692C61.69,36.684 61.667,36.667 61.65,36.646L61.65,36.646Z" fill="#C6C6C6"/>
<path d="M62.289,35.786C62.289,35.819 62.279,35.852 62.26,35.879C62.242,35.907 62.215,35.929 62.184,35.941C62.154,35.954 62.12,35.958 62.087,35.951C62.054,35.945 62.024,35.928 62.001,35.905C61.977,35.881 61.961,35.851 61.955,35.819C61.948,35.786 61.951,35.752 61.964,35.721C61.977,35.69 61.999,35.664 62.026,35.645C62.054,35.627 62.087,35.617 62.12,35.617C62.165,35.617 62.208,35.635 62.239,35.666C62.271,35.698 62.289,35.741 62.289,35.786L62.289,35.786Z" fill="#DADADA"/>
<path d="M62.148,35.792C62.161,35.806 62.178,35.815 62.196,35.819C62.215,35.824 62.234,35.822 62.252,35.816C62.259,35.799 62.263,35.781 62.263,35.762C62.263,35.73 62.25,35.698 62.228,35.675C62.205,35.651 62.174,35.637 62.141,35.636C62.123,35.659 62.114,35.687 62.115,35.715C62.116,35.744 62.128,35.771 62.148,35.792L62.148,35.792Z" fill="#FFFFFF"/>
<path d="M62.111,35.83C62.087,35.801 62.072,35.764 62.07,35.726C62.067,35.687 62.078,35.649 62.099,35.617C62.071,35.621 62.045,35.631 62.023,35.648C62.001,35.664 61.983,35.685 61.971,35.71C61.96,35.735 61.954,35.762 61.955,35.79C61.957,35.817 61.965,35.844 61.979,35.868C61.993,35.891 62.013,35.911 62.037,35.925C62.06,35.939 62.087,35.947 62.115,35.948C62.142,35.949 62.169,35.944 62.194,35.932C62.219,35.92 62.24,35.902 62.257,35.88C62.23,35.886 62.202,35.885 62.177,35.876C62.151,35.868 62.128,35.852 62.111,35.83L62.111,35.83Z" fill="#C6C6C6"/>
<path d="M63.533,37.312C63.298,37.903 62.816,38.264 62.453,38.121C62.09,37.978 61.988,37.38 62.222,36.791C62.457,36.202 62.942,35.839 63.302,35.982C63.663,36.125 63.772,36.721 63.533,37.312Z" fill="#EDEDED"/>
<path d="M75.4,32.781C74.333,35.451 72.058,37.049 70.305,36.351C68.553,35.653 67.994,32.926 69.055,30.258C70.115,27.59 72.397,25.989 74.149,26.687C75.902,27.385 76.461,30.112 75.4,32.781Z" fill="#3F3E3F"/>
<path d="M73.887,32.3C73.332,33.696 72.139,34.533 71.223,34.168C70.308,33.803 70.015,32.377 70.568,30.981C71.121,29.585 72.316,28.751 73.232,29.116C74.147,29.481 74.44,30.906 73.887,32.3Z" fill="#181817"/>
<path d="M73.778,31.997C73.287,33.231 72.235,33.969 71.43,33.647C70.626,33.325 70.363,32.063 70.852,30.83C71.341,29.596 72.397,28.857 73.2,29.18C74.002,29.502 74.278,30.763 73.778,31.997Z" fill="#DADADA"/>
<path d="M73.778,31.997C73.287,33.231 72.235,33.969 71.43,33.647C70.626,33.325 70.363,32.063 70.852,30.83C71.341,29.596 72.397,28.857 73.2,29.18C74.002,29.502 74.278,30.763 73.778,31.997Z" fill="#DADADA"/>
<path d="M73.259,31.73C72.933,32.554 72.256,33.06 71.75,32.859C71.245,32.659 71.11,31.826 71.43,31.002C71.75,30.179 72.433,29.671 72.939,29.873C73.445,30.076 73.588,30.904 73.259,31.73Z" fill="#878787"/>
<path d="M72.497,29.545C72.497,29.578 72.488,29.611 72.469,29.638C72.45,29.666 72.424,29.688 72.393,29.701C72.363,29.713 72.329,29.717 72.296,29.71C72.263,29.704 72.233,29.688 72.21,29.664C72.186,29.64 72.17,29.61 72.163,29.578C72.157,29.545 72.16,29.511 72.173,29.48C72.186,29.449 72.207,29.423 72.235,29.405C72.263,29.386 72.295,29.376 72.329,29.376C72.351,29.376 72.373,29.38 72.393,29.389C72.414,29.397 72.432,29.41 72.448,29.425C72.464,29.441 72.476,29.46 72.485,29.48C72.493,29.501 72.497,29.523 72.497,29.545L72.497,29.545Z" fill="#DADADA"/>
<path d="M72.35,29.551C72.363,29.565 72.38,29.574 72.398,29.578C72.416,29.582 72.435,29.581 72.453,29.575C72.461,29.558 72.466,29.54 72.465,29.521C72.465,29.488 72.452,29.457 72.429,29.433C72.406,29.41 72.374,29.396 72.342,29.395C72.323,29.418 72.314,29.446 72.316,29.475C72.317,29.504 72.329,29.531 72.35,29.551L72.35,29.551Z" fill="#FFFFFF"/>
<path d="M72.314,29.59C72.289,29.56 72.274,29.524 72.271,29.485C72.268,29.447 72.278,29.409 72.299,29.376C72.257,29.383 72.22,29.404 72.194,29.437C72.167,29.47 72.154,29.511 72.157,29.553C72.16,29.595 72.178,29.635 72.208,29.664C72.238,29.693 72.278,29.71 72.32,29.711C72.347,29.711 72.374,29.705 72.398,29.692C72.422,29.68 72.442,29.661 72.457,29.639C72.431,29.645 72.403,29.644 72.378,29.636C72.353,29.627 72.33,29.611 72.314,29.59Z" fill="#C6C6C6"/>
<path d="M73.283,29.489C73.283,29.523 73.273,29.555 73.254,29.583C73.236,29.611 73.21,29.632 73.179,29.645C73.148,29.658 73.114,29.661 73.081,29.655C73.049,29.648 73.019,29.632 72.995,29.608C72.971,29.585 72.955,29.555 72.949,29.522C72.942,29.489 72.946,29.455 72.958,29.425C72.971,29.394 72.993,29.368 73.021,29.349C73.048,29.33 73.081,29.321 73.114,29.321C73.159,29.321 73.202,29.338 73.234,29.37C73.265,29.402 73.283,29.444 73.283,29.489Z" fill="#DADADA"/>
<path d="M73.138,29.496C73.151,29.509 73.168,29.518 73.187,29.522C73.205,29.527 73.224,29.525 73.242,29.519C73.249,29.502 73.253,29.484 73.253,29.466C73.253,29.433 73.24,29.402 73.218,29.378C73.195,29.355 73.164,29.341 73.131,29.34C73.113,29.362 73.104,29.39 73.105,29.419C73.106,29.448 73.118,29.475 73.138,29.496L73.138,29.496Z" fill="#FFFFFF"/>
<path d="M73.108,29.534C73.083,29.505 73.068,29.468 73.065,29.43C73.062,29.391 73.072,29.353 73.093,29.321C73.049,29.323 73.008,29.344 72.978,29.377C72.949,29.41 72.934,29.454 72.937,29.498C72.94,29.542 72.96,29.583 72.993,29.612C73.027,29.642 73.07,29.656 73.114,29.654C73.141,29.654 73.168,29.648 73.191,29.635C73.215,29.623 73.236,29.605 73.251,29.583C73.225,29.59 73.197,29.588 73.172,29.58C73.147,29.571 73.124,29.555 73.108,29.534L73.108,29.534Z" fill="#C6C6C6"/>
<path d="M73.817,30.138C73.817,30.171 73.807,30.204 73.788,30.232C73.769,30.26 73.743,30.281 73.712,30.294C73.681,30.307 73.647,30.31 73.614,30.303C73.581,30.297 73.551,30.28 73.528,30.257C73.504,30.233 73.489,30.202 73.482,30.17C73.476,30.137 73.48,30.103 73.493,30.072C73.506,30.041 73.528,30.015 73.556,29.997C73.584,29.979 73.617,29.969 73.65,29.969C73.672,29.969 73.694,29.974 73.714,29.982C73.735,29.991 73.753,30.003 73.769,30.019C73.784,30.035 73.796,30.053 73.804,30.074C73.813,30.094 73.817,30.116 73.817,30.138L73.817,30.138Z" fill="#DADADA"/>
<path d="M73.678,30.144C73.691,30.158 73.708,30.168 73.727,30.172C73.745,30.176 73.765,30.175 73.782,30.168C73.789,30.151 73.793,30.133 73.793,30.115C73.793,30.082 73.78,30.051 73.758,30.027C73.735,30.004 73.704,29.99 73.671,29.989C73.653,30.011 73.644,30.039 73.645,30.068C73.646,30.096 73.658,30.124 73.678,30.144L73.678,30.144Z" fill="#FFFFFF"/>
<path d="M73.641,30.183C73.617,30.153 73.603,30.116 73.601,30.078C73.598,30.04 73.608,30.002 73.629,29.969C73.601,29.973 73.574,29.983 73.551,29.999C73.528,30.016 73.51,30.037 73.498,30.063C73.485,30.088 73.479,30.116 73.48,30.144C73.482,30.172 73.49,30.199 73.504,30.223C73.518,30.247 73.539,30.267 73.563,30.282C73.587,30.296 73.614,30.304 73.642,30.305C73.67,30.306 73.698,30.3 73.724,30.288C73.749,30.276 73.77,30.257 73.787,30.234C73.76,30.24 73.732,30.238 73.707,30.229C73.681,30.22 73.659,30.204 73.641,30.183L73.641,30.183Z" fill="#C6C6C6"/>
<path d="M73.904,31.12C73.904,31.153 73.895,31.186 73.876,31.214C73.858,31.242 73.832,31.264 73.801,31.277C73.77,31.29 73.736,31.294 73.703,31.287C73.67,31.281 73.64,31.265 73.616,31.241C73.592,31.218 73.576,31.187 73.57,31.154C73.563,31.121 73.567,31.087 73.58,31.056C73.593,31.026 73.615,30.999 73.643,30.981C73.671,30.963 73.704,30.953 73.738,30.953C73.782,30.953 73.824,30.971 73.855,31.002C73.886,31.033 73.904,31.076 73.904,31.12Z" fill="#DADADA"/>
<path d="M73.765,31.126C73.778,31.14 73.795,31.15 73.813,31.154C73.831,31.159 73.85,31.158 73.868,31.152C73.876,31.135 73.881,31.117 73.881,31.099C73.881,31.066 73.868,31.034 73.845,31.01C73.823,30.986 73.792,30.972 73.759,30.97C73.74,30.993 73.731,31.021 73.732,31.05C73.733,31.078 73.745,31.106 73.765,31.126L73.765,31.126Z" fill="#FFFFFF"/>
<path d="M73.729,31.167C73.705,31.137 73.691,31.1 73.688,31.062C73.686,31.024 73.696,30.986 73.716,30.953C73.675,30.96 73.637,30.982 73.611,31.015C73.585,31.047 73.572,31.089 73.574,31.131C73.577,31.173 73.595,31.212 73.625,31.241C73.656,31.27 73.696,31.287 73.738,31.288C73.764,31.288 73.79,31.282 73.814,31.269C73.838,31.257 73.858,31.24 73.874,31.218C73.848,31.224 73.82,31.222 73.794,31.213C73.769,31.204 73.746,31.188 73.729,31.167L73.729,31.167Z" fill="#C6C6C6"/>
<path d="M73.65,31.927C73.65,31.96 73.641,31.993 73.623,32.021C73.604,32.049 73.578,32.071 73.547,32.084C73.517,32.097 73.483,32.101 73.45,32.094C73.417,32.088 73.387,32.072 73.363,32.049C73.339,32.025 73.323,31.995 73.316,31.963C73.31,31.93 73.313,31.896 73.325,31.865C73.338,31.834 73.36,31.807 73.388,31.789C73.415,31.77 73.448,31.76 73.481,31.76C73.526,31.76 73.568,31.778 73.6,31.809C73.631,31.84 73.649,31.882 73.65,31.927L73.65,31.927Z" fill="#DADADA"/>
<path d="M73.511,31.927C73.525,31.94 73.541,31.949 73.559,31.953C73.577,31.957 73.596,31.956 73.614,31.95C73.617,31.932 73.617,31.914 73.614,31.897C73.614,31.864 73.601,31.832 73.579,31.808C73.556,31.785 73.525,31.77 73.492,31.769C73.475,31.793 73.467,31.822 73.471,31.851C73.474,31.881 73.489,31.908 73.511,31.927L73.511,31.927Z" fill="#FFFFFF"/>
<path d="M73.475,31.963C73.451,31.933 73.436,31.897 73.433,31.859C73.431,31.82 73.44,31.782 73.46,31.75C73.419,31.756 73.381,31.778 73.355,31.811C73.328,31.843 73.315,31.885 73.318,31.927C73.321,31.969 73.339,32.008 73.369,32.037C73.399,32.067 73.439,32.083 73.481,32.085C73.508,32.085 73.535,32.079 73.558,32.066C73.582,32.054 73.603,32.036 73.618,32.014C73.592,32.02 73.564,32.018 73.539,32.009C73.514,32 73.492,31.984 73.475,31.963Z" fill="#C6C6C6"/>
<path d="M73.227,32.68C73.227,32.714 73.217,32.746 73.199,32.774C73.18,32.802 73.154,32.823 73.123,32.836C73.092,32.849 73.058,32.852 73.025,32.845C72.992,32.839 72.962,32.822 72.939,32.799C72.915,32.775 72.899,32.745 72.893,32.712C72.887,32.679 72.891,32.645 72.904,32.614C72.917,32.583 72.939,32.557 72.967,32.539C72.995,32.521 73.028,32.511 73.061,32.512C73.083,32.512 73.105,32.516 73.125,32.524C73.145,32.533 73.164,32.545 73.179,32.561C73.195,32.577 73.207,32.595 73.215,32.616C73.224,32.636 73.228,32.658 73.227,32.68L73.227,32.68Z" fill="#DADADA"/>
<path d="M73.089,32.687C73.102,32.7 73.119,32.71 73.137,32.714C73.156,32.718 73.175,32.717 73.193,32.71C73.2,32.693 73.204,32.675 73.204,32.657C73.204,32.624 73.191,32.593 73.169,32.569C73.146,32.546 73.115,32.532 73.082,32.531C73.064,32.553 73.055,32.581 73.056,32.61C73.057,32.639 73.069,32.666 73.089,32.687Z" fill="#FFFFFF"/>
<path d="M73.052,32.725C73.028,32.695 73.013,32.659 73.011,32.62C73.008,32.582 73.019,32.544 73.04,32.512C73.012,32.515 72.986,32.526 72.964,32.542C72.942,32.558 72.924,32.58 72.912,32.605C72.901,32.63 72.895,32.657 72.896,32.684C72.898,32.712 72.906,32.739 72.92,32.762C72.934,32.786 72.954,32.805 72.978,32.82C73.001,32.834 73.028,32.842 73.056,32.843C73.083,32.844 73.11,32.838 73.135,32.826C73.16,32.814 73.181,32.796 73.198,32.774C73.171,32.78 73.144,32.779 73.118,32.77C73.092,32.762 73.07,32.746 73.052,32.725L73.052,32.725Z" fill="#C6C6C6"/>
<path d="M72.497,33.224C72.497,33.258 72.488,33.29 72.469,33.318C72.45,33.346 72.424,33.367 72.393,33.38C72.363,33.393 72.329,33.396 72.296,33.39C72.263,33.383 72.233,33.367 72.21,33.344C72.186,33.32 72.17,33.29 72.163,33.257C72.157,33.225 72.16,33.191 72.173,33.16C72.186,33.129 72.207,33.103 72.235,33.084C72.263,33.066 72.295,33.056 72.329,33.056C72.351,33.056 72.373,33.06 72.393,33.069C72.414,33.077 72.432,33.09 72.448,33.105C72.464,33.121 72.476,33.139 72.485,33.16C72.493,33.18 72.497,33.202 72.497,33.224L72.497,33.224Z" fill="#DADADA"/>
<path d="M72.35,33.231C72.363,33.245 72.379,33.254 72.398,33.259C72.416,33.263 72.435,33.261 72.453,33.254C72.461,33.238 72.466,33.219 72.465,33.201C72.465,33.168 72.452,33.137 72.429,33.113C72.406,33.09 72.374,33.076 72.342,33.075C72.323,33.097 72.314,33.126 72.316,33.155C72.317,33.183 72.329,33.211 72.35,33.231L72.35,33.231Z" fill="#FFFFFF"/>
<path d="M72.314,33.269C72.289,33.24 72.274,33.203 72.271,33.165C72.268,33.127 72.278,33.088 72.299,33.056C72.257,33.062 72.22,33.084 72.194,33.117C72.167,33.15 72.154,33.191 72.157,33.233C72.16,33.275 72.178,33.314 72.208,33.344C72.238,33.373 72.278,33.39 72.32,33.391C72.347,33.391 72.373,33.384 72.397,33.372C72.421,33.36 72.441,33.342 72.457,33.32C72.431,33.327 72.403,33.325 72.378,33.316C72.353,33.307 72.33,33.291 72.314,33.269L72.314,33.269Z" fill="#C6C6C6"/>
<path d="M71.735,33.28C71.735,33.325 71.718,33.368 71.686,33.399C71.654,33.431 71.612,33.449 71.567,33.449C71.522,33.449 71.479,33.431 71.448,33.399C71.416,33.368 71.398,33.325 71.398,33.28C71.398,33.235 71.416,33.192 71.448,33.161C71.479,33.129 71.522,33.111 71.567,33.111C71.612,33.111 71.654,33.129 71.686,33.161C71.718,33.192 71.735,33.235 71.735,33.28L71.735,33.28Z" fill="#DADADA"/>
<path d="M71.595,33.286C71.608,33.3 71.625,33.31 71.643,33.314C71.662,33.319 71.681,33.318 71.699,33.312C71.706,33.295 71.71,33.277 71.71,33.259C71.71,33.226 71.697,33.194 71.675,33.17C71.652,33.146 71.621,33.132 71.588,33.13C71.57,33.153 71.561,33.181 71.562,33.21C71.563,33.238 71.575,33.266 71.595,33.286L71.595,33.286Z" fill="#FFFFFF"/>
<path d="M71.558,33.327C71.534,33.297 71.52,33.261 71.518,33.222C71.515,33.184 71.525,33.146 71.545,33.113C71.518,33.117 71.491,33.127 71.468,33.143C71.445,33.16 71.427,33.181 71.414,33.207C71.402,33.232 71.396,33.26 71.397,33.288C71.398,33.316 71.407,33.343 71.421,33.367C71.435,33.391 71.455,33.412 71.48,33.426C71.504,33.44 71.531,33.448 71.559,33.449C71.587,33.45 71.615,33.444 71.64,33.432C71.666,33.42 71.687,33.401 71.703,33.378C71.677,33.384 71.649,33.382 71.624,33.373C71.598,33.364 71.576,33.348 71.558,33.327L71.558,33.327Z" fill="#C6C6C6"/>
<path d="M71.189,32.736C71.189,32.769 71.179,32.802 71.16,32.83C71.142,32.857 71.115,32.879 71.084,32.892C71.053,32.904 71.019,32.908 70.987,32.901C70.954,32.894 70.924,32.878 70.9,32.854C70.877,32.83 70.861,32.8 70.855,32.767C70.849,32.734 70.852,32.7 70.865,32.67C70.878,32.639 70.9,32.613 70.928,32.594C70.956,32.576 70.989,32.567 71.023,32.567C71.067,32.568 71.109,32.586 71.14,32.617C71.172,32.649 71.189,32.691 71.189,32.736L71.189,32.736Z" fill="#DADADA"/>
<path d="M71.05,32.742C71.063,32.756 71.08,32.765 71.098,32.769C71.116,32.773 71.135,32.772 71.153,32.766C71.162,32.749 71.166,32.731 71.166,32.712C71.166,32.68 71.153,32.648 71.13,32.625C71.108,32.601 71.077,32.587 71.044,32.586C71.026,32.608 71.016,32.637 71.018,32.665C71.019,32.694 71.03,32.721 71.05,32.742L71.05,32.742Z" fill="#FFFFFF"/>
<path d="M71.014,32.78C70.989,32.751 70.975,32.714 70.972,32.676C70.97,32.637 70.98,32.599 71.001,32.567C70.96,32.574 70.922,32.595 70.896,32.628C70.87,32.661 70.857,32.702 70.859,32.744C70.862,32.786 70.88,32.826 70.91,32.855C70.941,32.884 70.981,32.901 71.023,32.902C71.049,32.902 71.075,32.895 71.099,32.883C71.123,32.871 71.143,32.853 71.159,32.832C71.133,32.838 71.105,32.836 71.079,32.827C71.054,32.818 71.031,32.802 71.014,32.78L71.014,32.78Z" fill="#C6C6C6"/>
<path d="M70.88,31.993C70.973,31.993 71.048,31.917 71.048,31.824C71.048,31.731 70.973,31.656 70.88,31.656C70.786,31.656 70.711,31.731 70.711,31.824C70.711,31.917 70.786,31.993 70.88,31.993Z" fill="#DADADA"/>
<path d="M70.907,31.831C70.92,31.844 70.937,31.854 70.955,31.858C70.973,31.863 70.992,31.862 71.01,31.856C71.018,31.839 71.023,31.82 71.023,31.801C71.023,31.768 71.01,31.737 70.987,31.713C70.965,31.69 70.934,31.676 70.901,31.675C70.882,31.697 70.872,31.725 70.873,31.754C70.874,31.783 70.886,31.81 70.907,31.831L70.907,31.831Z" fill="#FFFFFF"/>
<path d="M70.871,31.871C70.847,31.842 70.832,31.805 70.829,31.767C70.827,31.729 70.836,31.69 70.856,31.658C70.815,31.664 70.777,31.686 70.751,31.719C70.724,31.752 70.711,31.793 70.714,31.835C70.717,31.877 70.735,31.916 70.765,31.946C70.795,31.975 70.835,31.992 70.877,31.993C70.904,31.993 70.931,31.987 70.954,31.975C70.978,31.962 70.999,31.944 71.014,31.922C70.988,31.928 70.96,31.926 70.935,31.917C70.91,31.908 70.888,31.892 70.871,31.871Z" fill="#C6C6C6"/>
<path d="M71.289,30.915C71.289,30.948 71.279,30.981 71.261,31.009C71.242,31.036 71.216,31.058 71.185,31.071C71.154,31.084 71.121,31.087 71.088,31.08C71.055,31.074 71.025,31.058 71.002,31.034C70.978,31.011 70.962,30.981 70.955,30.948C70.949,30.915 70.952,30.881 70.965,30.85C70.978,30.82 70.999,30.793 71.027,30.775C71.055,30.756 71.087,30.746 71.121,30.746C71.165,30.746 71.208,30.764 71.24,30.796C71.272,30.827 71.289,30.87 71.289,30.915L71.289,30.915Z" fill="#DADADA"/>
<path d="M71.148,30.921C71.162,30.935 71.179,30.945 71.197,30.949C71.216,30.954 71.235,30.953 71.253,30.947C71.26,30.93 71.263,30.912 71.264,30.894C71.264,30.861 71.252,30.829 71.229,30.805C71.206,30.781 71.175,30.767 71.142,30.766C71.124,30.788 71.114,30.816 71.116,30.845C71.117,30.873 71.129,30.901 71.148,30.921L71.148,30.921Z" fill="#FFFFFF"/>
<path d="M71.112,30.962C71.088,30.932 71.074,30.896 71.072,30.857C71.069,30.819 71.079,30.781 71.099,30.748C71.072,30.752 71.045,30.762 71.022,30.778C70.999,30.795 70.981,30.816 70.968,30.842C70.956,30.867 70.95,30.895 70.951,30.923C70.952,30.951 70.96,30.978 70.975,31.002C70.989,31.026 71.009,31.047 71.034,31.061C71.058,31.075 71.085,31.083 71.113,31.084C71.141,31.085 71.169,31.079 71.194,31.067C71.219,31.055 71.241,31.036 71.257,31.013C71.231,31.019 71.203,31.017 71.178,31.008C71.152,30.999 71.129,30.983 71.112,30.962Z" fill="#C6C6C6"/>
<path d="M71.75,30.1C71.751,30.133 71.741,30.166 71.723,30.194C71.705,30.222 71.679,30.244 71.648,30.257C71.617,30.27 71.583,30.274 71.55,30.267C71.517,30.261 71.487,30.245 71.463,30.222C71.44,30.198 71.423,30.168 71.417,30.135C71.41,30.103 71.413,30.069 71.426,30.038C71.438,30.007 71.46,29.98 71.488,29.962C71.516,29.943 71.548,29.933 71.582,29.933C71.626,29.933 71.669,29.951 71.7,29.982C71.732,30.013 71.75,30.055 71.75,30.1L71.75,30.1Z" fill="#DADADA"/>
<path d="M71.612,30.106C71.625,30.12 71.641,30.129 71.659,30.134C71.677,30.138 71.696,30.138 71.714,30.132C71.722,30.115 71.725,30.097 71.725,30.078C71.725,30.045 71.713,30.013 71.69,29.989C71.667,29.965 71.636,29.951 71.603,29.95C71.585,29.973 71.575,30.001 71.577,30.03C71.579,30.059 71.591,30.086 71.612,30.106L71.612,30.106Z" fill="#FFFFFF"/>
<path d="M71.575,30.147C71.551,30.117 71.536,30.081 71.534,30.042C71.531,30.004 71.54,29.966 71.56,29.933C71.519,29.94 71.481,29.962 71.455,29.994C71.429,30.027 71.416,30.069 71.418,30.11C71.421,30.152 71.439,30.192 71.47,30.221C71.5,30.25 71.54,30.267 71.582,30.268C71.609,30.269 71.635,30.262 71.659,30.25C71.683,30.238 71.703,30.22 71.718,30.198C71.692,30.204 71.665,30.202 71.64,30.193C71.614,30.184 71.592,30.168 71.575,30.147L71.575,30.147Z" fill="#C6C6C6"/>
<path d="M72.999,31.626C72.764,32.217 72.282,32.578 71.919,32.435C71.556,32.292 71.456,31.696 71.691,31.105C71.925,30.514 72.408,30.153 72.771,30.298C73.133,30.443 73.234,31.037 72.999,31.626Z" fill="#EDEDED"/>
<path d="M28.159,34.253L76.926,7.955C76.926,7.955 78.864,7.355 78.796,10.055L78.796,17.199L24.936,48.148L25.718,39.088C25.718,39.088 25.636,35.173 28.159,34.253Z" fill="#2D2D2D"/>
<path d="M28.706,34.881L76.126,9.481C76.126,9.481 77.699,8.995 77.641,11.189L77.641,16.986L26.091,46.144L26.731,38.793C26.731,38.793 26.659,35.628 28.706,34.881Z" fill="#8CD0E5"/>
<path d="M36.752,40.714L35.941,41.096L35.941,30.766L36.752,30.213L36.752,40.714Z" fill="#2D2D2D"/>
<path d="M62.035,26.345L61.223,26.843L61.223,16.766L62.035,16.478L62.035,26.345Z" fill="#2D2D2D"/>
<path d="M70.468,21.613L69.654,22.11L69.654,12.032L70.468,11.746L70.468,21.613Z" fill="#2D2D2D"/>
<g style="mix-blend-mode:multiply">
<path d="M76.126,9.481L76.03,9.532C76.51,15.957 72.489,17.374 72.489,17.374L33.135,40.146C28.817,41.416 28.012,38.153 28.106,35.207C26.674,36.285 26.725,38.793 26.725,38.793L26.085,46.144L77.641,16.986L77.641,11.184C77.699,8.995 76.126,9.481 76.126,9.481Z" fill="#8CD0E5"/>
</g>
<path d="M45.324,25.184L54.351,20.128L54.351,42.2L45.324,47.51L45.324,25.184Z" fill="#2D2D2D"/>
<path d="M45.787,25.658L53.888,21.152L53.888,41.871L45.787,46.488L45.787,25.658Z" fill="#D08000"/>
<path d="M49.565,24.501L46.603,26.202L46.603,45.151L49.565,43.45L49.565,24.501Z" fill="#8CD0E5"/>
<path d="M50.297,24.081L50.297,43.03L53.232,41.346L53.232,22.399L50.297,24.081Z" fill="#8CD0E5"/>
<g style="mix-blend-mode:multiply">
<path d="M47.311,25.801L46.611,26.202L46.611,45.16L49.576,43.452L49.576,42.234C46.788,42.957 47.121,30.006 47.311,25.801Z" fill="#8CD0E5"/>
</g>
<g style="mix-blend-mode:multiply">
<path d="M51.224,23.551L50.3,24.083L50.3,43.026L53.232,41.342L53.232,40.789C50.498,40.789 51.079,26.469 51.224,23.551Z" fill="#8CD0E5"/>
</g>
</svg>
