<svg width="1190" height="1750" viewBox="0 0 1190 1750" fill="none" xmlns="http://www.w3.org/2000/svg" xmlns:xlink="http://www.w3.org/1999/xlink">
<rect  x="0" y="0" width="1189.644" height="1750" fill="url(#pattern_0_9_12268)"/>
<path d="M371.347,841.645L369.113,839.643C369.055,839.709 368.999,839.775 368.947,839.845L371.347,841.645ZM327.986,969.505L325.079,970.247C325.217,970.787 325.503,971.279 325.905,971.665L327.986,969.505ZM631.512,790.503L629.152,788.649C629.102,788.713 629.054,788.779 629.01,788.847L631.512,790.503ZM653.748,774.937L656.748,774.937C656.748,774.697 656.72,774.459 656.662,774.225L653.748,774.937ZM796.06,1092.917L793.528,1094.525C793.82,1094.985 794.232,1095.357 794.72,1095.599L796.06,1092.917ZM647.078,1287.485L644.08,1287.339C644.07,1287.557 644.084,1287.777 644.12,1287.995L647.078,1287.485ZM776.048,993.965L773.058,994.217C773.068,994.331 773.084,994.447 773.108,994.559L776.048,993.965ZM759.37,796.061L756.37,796.061C756.37,796.145 756.374,796.229 756.382,796.313L759.37,796.061ZM937.262,746.029L935.694,743.471C935.594,743.533 935.498,743.601 935.404,743.673L937.262,746.029ZM729.352,519.219L730.176,522.103C730.246,522.083 730.316,522.06 730.384,522.035L729.352,519.219ZM682.656,532.56L683.08,535.53C683.214,535.511 683.348,535.482 683.48,535.445L682.656,532.56ZM630.4,679.32L627.422,679.682C627.436,679.8 627.458,679.917 627.486,680.032L630.4,679.32ZM494.759,789.391L491.839,790.081C491.842,790.095 491.845,790.107 491.848,790.119L494.759,789.391ZM820.666,661.904L822.706,659.706L820.666,661.904ZM467.981,745.743L468.23,742.755L467.981,745.743ZM470.295,745.937L470.046,748.927L470.295,745.937ZM510.4,866.345L513.213,867.387L510.4,866.345ZM511.048,854.549L508.138,855.275L511.048,854.549ZM498.088,893.755L500.16,895.925L498.088,893.755ZM503.034,886.235L505.847,887.277L503.034,886.235ZM474.64,915.181L473.206,912.547L474.64,915.181ZM478.888,912.083L480.959,914.253L478.888,912.083ZM383.343,961.335L383.543,958.343L383.343,961.335ZM394.235,958.947L392.801,956.311L394.235,958.947ZM332.687,964.803L330.566,962.683L332.687,964.803ZM348.159,958.991L347.96,961.983L348.159,958.991ZM531.642,922.021L532.912,919.303L531.642,922.021ZM617.29,571.422L614.312,571.784L617.29,571.422ZM649.146,537.348L648.72,534.378L649.146,537.348ZM639.48,541.529L637.606,539.187L639.48,541.529ZM917.188,680.312L920.138,680.858L917.188,680.312ZM912.22,690.235L910.014,688.201L912.22,690.235ZM937.518,522.66L940.124,524.148L940.124,524.148L937.518,522.66ZM957.216,688.653L955.324,690.982L957.216,688.653ZM964.34,694.442L966.232,692.114L964.34,694.442ZM962.18,730.757L960.612,728.199L962.18,730.757ZM898.61,780.167L901.42,781.221L898.61,780.167ZM904.96,771.479L903.102,769.123L904.96,771.479ZM881.202,814.105L879.668,811.529L881.202,814.105ZM889.694,803.947L892.502,804.999L889.694,803.947ZM824.018,831.749L822.006,833.975L824.018,831.749ZM847.66,834.089L846.124,831.511L847.66,834.089ZM799.244,803.939L796.298,804.505L799.244,803.939ZM805.478,815.003L803.466,817.231L805.478,815.003ZM790.548,748.301L787.646,747.537L790.548,748.301ZM790.248,757.167L787.302,757.735L790.248,757.167ZM809.858,706.711L810.972,709.497L809.858,706.711ZM797.946,720.191L800.846,720.955L797.946,720.191ZM802.544,676.172L800.424,674.05L802.544,676.172ZM661.898,1237.401L660.89,1234.575L661.898,1237.401ZM755.974,1381.165L756.418,1384.131L755.974,1381.165ZM776.274,1381.503L774.4,1383.845L776.274,1381.503ZM725.384,1376.977L726.58,1374.225L725.384,1376.977ZM656.844,1344.137L653.888,1344.647L656.844,1344.137ZM664.554,1356.739L662.754,1359.139L664.554,1356.739ZM765.844,1179.407L767.316,1182.021L765.844,1179.407ZM823.364,1163.283L825.946,1164.809L823.364,1163.283ZM808.402,1172.979L808.064,1169.999L808.402,1172.979ZM833.178,1142.973L836.164,1143.261L833.178,1142.973ZM830.49,1151.221L833.074,1152.747L830.49,1151.221ZM834.764,1126.601L837.75,1126.891L834.764,1126.601ZM757.072,1033.143L759.018,1030.859L757.072,1033.143ZM760.99,1037.653L763.522,1036.045L760.99,1037.653ZM751.374,511.144L750.34,508.327L751.374,511.144ZM668.94,984.057L670.444,986.653L668.94,984.057ZM818.876,646.639L821.818,646.051L818.876,646.639ZM578.264,992.539L575.34,993.209L578.264,992.539ZM588.816,1005.971L587.474,1008.655L588.816,1005.971ZM866.47,695.536L866.068,698.509L866.47,695.536ZM857.68,692.101L859.4,689.643L857.68,692.101ZM574.84,956.327L572.176,954.949L574.84,956.327ZM573.106,969.975L576.03,969.307L573.106,969.975ZM909.854,692.797L907.65,690.762L909.854,692.797ZM892.48,699.051L892.078,702.024L892.48,699.051ZM651.51,808.167L648.846,806.789L651.51,808.167ZM937.276,523.084L934.672,521.596L937.276,523.084ZM938.71,529.624L940.452,527.182L938.71,529.624ZM637.736,782.581L640.096,784.433L637.736,782.581ZM768.904,1379.225L768.46,1376.257L768.904,1379.225ZM945.438,526.67L948.18,527.888L945.438,526.67ZM521.838,937.359L522.094,934.371L521.838,937.359ZM540.226,928.469L542.728,930.125L540.226,928.469ZM693.526,983.167L693.932,980.195L693.526,983.167ZM703.794,987.759L701.848,990.043L703.794,987.759ZM767.87,1395.449L769.066,1392.697L767.87,1395.449ZM917.456,617.107L914.584,616.245L917.456,617.107ZM348.144,988.917L346.063,991.077L348.144,988.917ZM370.426,992.657L369.165,989.935L370.426,992.657ZM798.47,544.606L801.412,544.017L798.47,544.606ZM792.264,533.686L790.254,535.912L790.254,535.912L792.264,533.686ZM601.86,1012.493L603.202,1009.811L601.86,1012.493ZM620.826,1011.913L622.328,1014.509L620.826,1011.913ZM683.992,1371.319L685.792,1368.919L683.992,1371.319ZM939.806,682.137L939.016,685.031L939.806,682.137ZM926.094,669.166L923.248,670.115L926.094,669.166ZM320.393,909.585L317.993,907.785L320.393,909.585ZM317.014,926.533L314.108,927.275L317.014,926.533ZM368.947,839.845L317.993,907.785L322.793,911.385L373.747,843.445L368.947,839.845ZM314.108,927.275L325.079,970.247L330.893,968.763L319.921,925.791L314.108,927.275ZM325.905,971.665L346.063,991.077L350.225,986.755L330.067,967.343L325.905,971.665ZM371.687,995.377L496.02,937.761L493.497,932.317L369.165,989.935L371.687,995.377ZM494.502,938.027L521.582,940.349L522.094,934.371L495.015,932.049L494.502,938.027ZM633.87,792.355L640.096,784.433L635.378,780.727L629.152,788.649L633.87,792.355ZM653.462,777.937L653.748,777.937L653.748,771.937L653.462,771.937L653.462,777.937ZM650.748,774.937L650.748,798.975L656.748,798.975L656.748,774.937L650.748,774.937ZM648.846,806.789L572.176,954.949L577.506,957.707L654.176,809.547L648.846,806.789ZM570.182,970.645L575.34,993.209L581.188,991.871L576.03,969.307L570.182,970.645ZM587.474,1008.655L600.518,1015.177L603.202,1009.811L590.158,1003.289L587.474,1008.655ZM622.328,1014.509L670.444,986.653L667.438,981.461L619.322,1009.317L622.328,1014.509ZM681.258,984.521L693.122,986.139L693.932,980.195L682.07,978.577L681.258,984.521ZM701.848,990.043L755.126,1035.427L759.018,1030.859L705.738,985.475L701.848,990.043ZM758.456,1039.259L793.528,1094.525L798.594,1091.309L763.522,1036.045L758.456,1039.259ZM794.72,1095.599L822.458,1109.469L825.142,1104.103L797.402,1090.233L794.72,1095.599ZM831.776,1126.313L830.192,1142.683L836.164,1143.261L837.75,1126.891L831.776,1126.313ZM827.908,1149.695L820.78,1161.757L825.946,1164.809L833.074,1152.747L827.908,1149.695ZM808.064,1169.999L773.07,1173.975L773.746,1179.937L808.742,1175.961L808.064,1169.999ZM764.37,1176.793L663.392,1233.727L666.34,1238.955L767.316,1182.021L764.37,1176.793ZM662.032,1235.355L644.244,1286.499L649.91,1288.471L667.7,1237.327L662.032,1235.355ZM644.12,1287.995L653.888,1344.647L659.802,1343.627L650.034,1286.975L644.12,1287.995ZM662.754,1359.139L682.192,1373.719L685.792,1368.919L666.354,1354.339L662.754,1359.139ZM695.992,1378.319L717.41,1378.319L717.41,1372.319L695.992,1372.319L695.992,1378.319ZM778.148,1379.161L777.594,1378.717L773.846,1383.401L774.4,1383.845L778.148,1379.161ZM768.46,1376.257L755.528,1378.197L756.418,1384.131L769.35,1382.191L768.46,1376.257ZM724.188,1379.727L745.944,1389.187L748.336,1383.685L726.58,1374.225L724.188,1379.727ZM745.944,1389.187L766.672,1398.199L769.066,1392.697L748.336,1383.685L745.944,1389.187ZM650.074,1287.631L651.646,1255.407L645.652,1255.115L644.08,1287.339L650.074,1287.631ZM662.908,1240.227L665.876,1239.167L663.858,1233.515L660.89,1234.575L662.908,1240.227ZM799.002,1092.321L778.988,993.371L773.108,994.559L793.12,1093.511L799.002,1092.321ZM779.038,993.713L762.36,795.809L756.382,796.313L773.058,994.217L779.038,993.713ZM762.37,796.061L762.37,727.631L756.37,727.631L756.37,796.061L762.37,796.061ZM767.35,715.609L804.666,678.293L800.424,674.05L763.108,711.367L767.35,715.609ZM824.29,675.108L838.08,682.004L840.764,676.637L826.972,669.742L824.29,675.108ZM836.422,679.32L836.422,681.345L842.422,681.345L842.422,679.32L836.422,679.32ZM825.736,697.129L808.744,703.925L810.972,709.497L827.964,702.7L825.736,697.129ZM795.044,719.427L787.646,747.537L793.448,749.065L800.846,720.955L795.044,719.427ZM787.302,757.735L796.298,804.505L802.19,803.373L793.194,756.601L787.302,757.735ZM803.466,817.231L822.006,833.975L826.028,829.523L807.488,812.777L803.466,817.231ZM849.194,836.667L882.738,816.683L879.668,811.529L846.124,831.511L849.194,836.667ZM892.502,804.999L901.42,781.221L895.802,779.113L886.884,802.893L892.502,804.999ZM906.816,773.837L939.118,748.387L935.404,743.673L903.102,769.123L906.816,773.837ZM938.83,748.587L963.746,733.315L960.612,728.199L935.694,743.471L938.83,748.587ZM974.728,713.705L974.728,709.965L968.728,709.965L968.728,713.705L974.728,713.705ZM966.232,692.114L959.108,686.325L955.324,690.982L962.448,696.77L966.232,692.114ZM950.656,681.986L940.594,679.242L939.016,685.031L949.076,687.775L950.656,681.986ZM928.94,668.217L924.542,655.023L918.85,656.921L923.248,670.115L928.94,668.217ZM924.658,655.494L919.83,625.561L913.906,626.517L918.734,656.45L924.658,655.494ZM920.33,617.97L945.694,533.422L939.948,531.698L914.584,616.245L920.33,617.97ZM945.562,533.779L948.18,527.888L942.698,525.451L940.08,531.342L945.562,533.779ZM934.914,521.171L934.672,521.596L939.88,524.573L940.124,524.148L934.914,521.171ZM936.966,532.065L941.076,535.002L944.564,530.119L940.452,527.182L936.966,532.065ZM918.746,655.426L914.238,679.765L920.138,680.858L924.646,656.518L918.746,655.426ZM910.014,688.201L907.65,690.762L912.06,694.831L914.424,692.27L910.014,688.201ZM892.882,696.078L866.872,692.563L866.068,698.509L892.078,702.024L892.882,696.078ZM859.4,689.643L841.142,676.863L837.702,681.778L855.96,694.559L859.4,689.643ZM821.818,646.051L801.412,544.017L795.528,545.194L815.934,647.228L821.818,646.051ZM794.274,531.46L773.674,512.853L769.654,517.306L790.254,535.912L794.274,531.46ZM750.34,508.327L728.318,516.402L730.384,522.035L752.406,513.961L750.34,508.327ZM728.528,516.334L681.832,529.676L683.48,535.445L730.176,522.103L728.528,516.334ZM682.232,529.591L648.72,534.378L649.57,540.317L683.08,535.53L682.232,529.591ZM637.606,539.187L622.776,551.05L626.526,555.735L641.354,543.872L637.606,539.187ZM614.312,571.784L627.422,679.682L633.378,678.958L620.268,571.06L614.312,571.784ZM627.486,680.032L650.834,775.649L656.662,774.225L633.314,678.609L627.486,680.032ZM542.728,930.125L543.956,928.267L538.952,924.957L537.724,926.813L542.728,930.125ZM543.956,928.267L634.014,792.157L629.01,788.847L538.952,924.957L543.956,928.267ZM542.726,923.895L532.912,919.303L530.37,924.739L540.184,929.329L542.726,923.895ZM510.409,920.999L493.094,932.543L496.423,937.535L513.737,925.991L510.409,920.999ZM330.107,971.627L334.808,966.925L330.566,962.683L325.865,967.383L330.107,971.627ZM347.96,961.983L383.144,964.329L383.543,958.343L348.359,955.997L347.96,961.983ZM395.669,961.581L476.074,917.817L473.206,912.547L392.801,956.311L395.669,961.581ZM480.959,914.253L500.16,895.925L496.017,891.585L476.817,909.913L480.959,914.253ZM505.847,887.277L513.213,867.387L507.587,865.303L500.22,885.193L505.847,887.277ZM513.958,853.821L497.669,788.663L491.848,790.119L508.138,855.275L513.958,853.821ZM497.678,788.699L491.015,760.567L485.176,761.949L491.839,790.081L497.678,788.699ZM470.544,742.947L468.23,742.755L467.732,748.733L470.046,748.927L470.544,742.947ZM449.195,750.321L369.113,839.643L373.581,843.649L453.662,754.327L449.195,750.321ZM841.462,677.122L822.706,659.706L818.624,664.102L837.38,681.519L841.462,677.122ZM815.616,650.707C813.752,655.365 814.948,660.689 818.624,664.102L822.706,659.706C820.85,657.98 820.244,655.29 821.186,652.936L815.616,650.707ZM468.23,742.755C461.05,742.155 454.005,744.957 449.195,750.321L453.662,754.327C457.217,750.361 462.425,748.291 467.732,748.733L468.23,742.755ZM491.015,760.567C488.721,750.883 480.461,743.773 470.544,742.947L470.046,748.927C477.376,749.537 483.481,754.793 485.176,761.949L491.015,760.567ZM513.213,867.387C514.822,863.043 515.082,858.315 513.958,853.821L508.138,855.275C508.968,858.597 508.776,862.093 507.587,865.303L513.213,867.387ZM500.16,895.925C502.688,893.511 504.633,890.555 505.847,887.277L500.22,885.193C499.323,887.615 497.886,889.801 496.017,891.585L500.16,895.925ZM476.074,917.817C477.852,916.849 479.495,915.651 480.959,914.253L476.817,909.913C475.734,910.945 474.52,911.831 473.206,912.547L476.074,917.817ZM383.144,964.329C387.495,964.619 391.839,963.667 395.669,961.581L392.801,956.311C389.97,957.853 386.759,958.557 383.543,958.343L383.144,964.329ZM334.808,966.925C338.275,963.459 343.069,961.657 347.96,961.983L348.359,955.997C341.741,955.555 335.255,957.993 330.566,962.683L334.808,966.925ZM532.912,919.303C525.63,915.897 517.098,916.539 510.409,920.999L513.737,925.991C518.682,922.695 524.988,922.221 530.37,924.739L532.912,919.303ZM622.776,551.05C616.554,556.028 613.352,563.873 614.312,571.784L620.268,571.06C619.558,565.213 621.926,559.414 626.526,555.735L622.776,551.05ZM648.72,534.378C644.652,534.959 640.814,536.619 637.606,539.187L641.354,543.872C643.726,541.974 646.562,540.747 649.57,540.317L648.72,534.378ZM914.238,679.765C913.654,682.919 912.19,685.844 910.014,688.201L914.424,692.27C917.368,689.081 919.348,685.125 920.138,680.858L914.238,679.765ZM944.31,518.022C940.832,516.532 936.79,517.887 934.914,521.171L940.124,524.148C940.488,523.511 941.272,523.248 941.946,523.537L944.31,518.022ZM959.108,686.325C956.622,684.306 953.744,682.828 950.656,681.986L949.076,687.775C951.36,688.397 953.488,689.49 955.324,690.982L959.108,686.325ZM974.728,709.965C974.728,703.038 971.606,696.481 966.232,692.114L962.448,696.77C966.42,699.998 968.728,704.845 968.728,709.965L974.728,709.965ZM963.746,733.315C970.57,729.133 974.728,721.707 974.728,713.705L968.728,713.705C968.728,719.619 965.654,725.109 960.612,728.199L963.746,733.315ZM901.42,781.221C902.51,778.313 904.376,775.759 906.816,773.837L903.102,769.123C899.802,771.725 897.276,775.179 895.802,779.113L901.42,781.221ZM882.738,816.683C887.224,814.009 890.668,809.889 892.502,804.999L886.884,802.893C885.528,806.507 882.984,809.553 879.668,811.529L882.738,816.683ZM822.006,833.975C829.496,840.741 840.524,841.833 849.194,836.667L846.124,831.511C839.714,835.331 831.564,834.523 826.028,829.523L822.006,833.975ZM796.298,804.505C797.242,809.413 799.758,813.881 803.466,817.231L807.488,812.777C804.748,810.301 802.886,806.999 802.19,803.373L796.298,804.505ZM787.646,747.537C786.77,750.869 786.652,754.353 787.302,757.735L793.194,756.601C792.714,754.101 792.802,751.527 793.448,749.065L787.646,747.537ZM808.744,703.925C801.98,706.631 796.898,712.381 795.044,719.427L800.846,720.955C802.216,715.747 805.974,711.497 810.972,709.497L808.744,703.925ZM836.422,681.345C836.422,688.296 832.19,694.547 825.736,697.129L827.964,702.7C836.696,699.207 842.422,690.75 842.422,681.345L836.422,681.345ZM804.666,678.293C809.84,673.119 817.744,671.836 824.29,675.108L826.972,669.742C818.118,665.314 807.424,667.05 800.424,674.05L804.666,678.293ZM762.37,727.631C762.37,723.121 764.162,718.797 767.35,715.609L763.108,711.367C758.794,715.681 756.37,721.531 756.37,727.631L762.37,727.631ZM651.646,1255.407C651.98,1248.533 656.426,1242.541 662.908,1240.227L660.89,1234.575C652.122,1237.707 646.106,1245.815 645.652,1255.115L651.646,1255.407ZM755.528,1378.197C751.226,1378.843 747.352,1381.155 744.74,1384.637L749.54,1388.237C751.206,1386.017 753.676,1384.543 756.418,1384.131L755.528,1378.197ZM778.646,1396.251C783.79,1391.621 783.552,1383.483 778.148,1379.161L774.4,1383.845C776.912,1385.855 777.022,1389.639 774.632,1391.791L778.646,1396.251ZM717.41,1378.319C719.742,1378.319 722.048,1378.797 724.188,1379.727L726.58,1374.225C723.686,1372.967 720.564,1372.319 717.41,1372.319L717.41,1378.319ZM653.888,1344.647C654.886,1350.431 658.058,1355.617 662.754,1359.139L666.354,1354.339C662.882,1351.735 660.538,1347.903 659.802,1343.627L653.888,1344.647ZM773.07,1173.975C770.01,1174.323 767.052,1175.281 764.37,1176.793L767.316,1182.021C769.3,1180.903 771.486,1180.195 773.746,1179.937L773.07,1173.975ZM820.78,1161.757C818.068,1166.345 813.36,1169.397 808.064,1169.999L808.742,1175.961C815.908,1175.147 822.276,1171.017 825.946,1164.809L820.78,1161.757ZM830.192,1142.683C829.954,1145.159 829.172,1147.553 827.908,1149.695L833.074,1152.747C834.786,1149.849 835.84,1146.611 836.164,1143.261L830.192,1142.683ZM822.458,1109.469C828.75,1112.615 832.454,1119.311 831.776,1126.313L837.75,1126.891C838.666,1117.417 833.654,1108.359 825.142,1104.103L822.458,1109.469ZM755.126,1035.427C756.422,1036.531 757.544,1037.823 758.456,1039.259L763.522,1036.045C762.288,1034.101 760.77,1032.353 759.018,1030.859L755.126,1035.427ZM773.674,512.853C767.34,507.131 758.356,505.388 750.34,508.327L752.406,513.961C758.33,511.788 764.97,513.076 769.654,517.306L773.674,512.853ZM670.444,986.653C673.712,984.761 677.518,984.011 681.258,984.521L682.07,978.577C677.008,977.887 671.86,978.901 667.438,981.461L670.444,986.653ZM815.934,647.228C816.168,648.394 816.058,649.603 815.616,650.707L821.186,652.936C822.06,650.751 822.28,648.359 821.818,646.051L815.934,647.228ZM575.34,993.209C576.872,999.913 581.324,1005.579 587.474,1008.655L590.158,1003.289C585.612,1001.015 582.32,996.827 581.188,991.871L575.34,993.209ZM866.872,692.563C864.184,692.2 861.622,691.199 859.4,689.643L855.96,694.559C858.966,696.663 862.432,698.018 866.068,698.509L866.872,692.563ZM572.176,954.949C569.676,959.781 568.97,965.341 570.182,970.645L576.03,969.307C575.134,965.387 575.658,961.277 577.506,957.707L572.176,954.949ZM907.65,690.762C903.89,694.836 898.378,696.82 892.882,696.078L892.078,702.024C899.514,703.029 906.97,700.344 912.06,694.831L907.65,690.762ZM650.748,798.975C650.748,801.695 650.096,804.375 648.846,806.789L654.176,809.547C655.866,806.279 656.748,802.655 656.748,798.975L650.748,798.975ZM934.672,521.596C932.636,525.157 933.628,529.681 936.966,532.065L940.452,527.182C939.62,526.588 939.374,525.46 939.88,524.573L934.672,521.596ZM640.096,784.433C643.318,780.331 648.246,777.937 653.462,777.937L653.462,771.937C646.404,771.937 639.738,775.177 635.378,780.727L640.096,784.433ZM777.594,1378.717C775.024,1376.661 771.714,1375.769 768.46,1376.257L769.35,1382.191C770.952,1381.951 772.58,1382.389 773.846,1383.401L777.594,1378.717ZM948.18,527.888C949.866,524.096 948.124,519.657 944.31,518.022L941.946,523.537C942.686,523.854 943.024,524.716 942.698,525.451L948.18,527.888ZM521.582,940.349C529.97,941.067 538.082,937.145 542.728,930.125L537.724,926.813C534.29,932.003 528.294,934.903 522.094,934.371L521.582,940.349ZM693.122,986.139C696.344,986.579 699.372,987.933 701.848,990.043L705.738,985.475C702.39,982.621 698.292,980.789 693.932,980.195L693.122,986.139ZM774.632,1391.791C773.114,1393.157 770.938,1393.511 769.066,1392.697L766.672,1398.199C770.7,1399.951 775.38,1399.189 778.646,1396.251L774.632,1391.791ZM919.83,625.561C919.42,623.025 919.592,620.43 920.33,617.97L914.584,616.245C913.584,619.574 913.354,623.086 913.906,626.517L919.83,625.561ZM346.063,991.077C352.899,997.661 363.077,999.369 371.687,995.377L369.165,989.935C362.8,992.883 355.278,991.621 350.225,986.755L346.063,991.077ZM801.412,544.017C800.442,539.174 797.94,534.77 794.274,531.46L790.254,535.912C792.962,538.359 794.812,541.614 795.528,545.194L801.412,544.017ZM600.518,1015.177C607.438,1018.637 615.634,1018.387 622.328,1014.509L619.322,1009.317C614.374,1012.183 608.316,1012.367 603.202,1009.811L600.518,1015.177ZM682.192,1373.719C686.174,1376.703 691.016,1378.319 695.992,1378.319L695.992,1372.319C692.314,1372.319 688.736,1371.125 685.792,1368.919L682.192,1373.719ZM940.594,679.242C935.11,677.747 930.738,673.609 928.94,668.217L923.248,670.115C925.68,677.41 931.596,683.007 939.016,685.031L940.594,679.242ZM317.993,907.785C313.813,913.357 312.384,920.525 314.108,927.275L319.921,925.791C318.647,920.801 319.703,915.505 322.793,911.385L317.993,907.785Z" fill="#FF0000"/>
<rect  x="361.452" y="819.521" width="28" height="28" rx="50" fill="#FFFFFF" stroke="#FF0000" stroke-width="1" stroke-miterlimit="3.999327"/>
<rect  x="348.11" y="944.044" width="28" height="28" rx="50" fill="#FFFFFF" stroke="#FF0000" stroke-width="1" stroke-miterlimit="3.999327"/>
<rect  x="488.199" y="806.179" width="28" height="28" rx="50" fill="#FFFFFF" stroke="#FF0000" stroke-width="1" stroke-miterlimit="3.999327"/>
<rect  x="610.499" y="799.508" width="28" height="28" rx="50" fill="#FFFFFF" stroke="#FF0000" stroke-width="1" stroke-miterlimit="3.999327"/>
<rect  x="617.17" y="641.63" width="28" height="28" rx="50" fill="#FFFFFF" stroke="#FF0000" stroke-width="1" stroke-miterlimit="3.999327"/>
<rect  x="792.837" y="568.25" width="28" height="28" rx="50" fill="#FFFFFF" stroke="#FF0000" stroke-width="1" stroke-miterlimit="3.999327"/>
<rect  x="557.132" y="970.728" width="28" height="28" rx="50" fill="#FFFFFF" stroke="#FF0000" stroke-width="1" stroke-miterlimit="3.999327"/>
<rect  x="772.824" y="1012.977" width="28" height="28" rx="50" fill="#FFFFFF" stroke="#FF0000" stroke-width="1" stroke-miterlimit="3.999327"/>
<rect  x="694.997" y="1357.64" width="28" height="28" rx="50" fill="#FFFFFF" stroke="#FF0000" stroke-width="1" stroke-miterlimit="3.999327"/>
<rect  x="819.521" y="819.521" width="28" height="28" rx="50" fill="#FFFFFF" stroke="#FF0000" stroke-width="1" stroke-miterlimit="3.999327"/>
<rect  x="944.044" y="723.905" width="28" height="28" rx="50" fill="#FFFFFF" stroke="#FF0000" stroke-width="1" stroke-miterlimit="3.999327"/>
<rect  x="930.703" y="505.989" width="28" height="28" rx="50" fill="#FFFFFF" stroke="#FF0000" stroke-width="1" stroke-miterlimit="3.999327"/>
<rect  x="870.665" y="688.327" width="28" height="28" rx="50" fill="#FFFFFF" stroke="#FF0000" stroke-width="1" stroke-miterlimit="3.999327"/>
<rect  x="563.803" y="846.205" width="28" height="28" rx="50" fill="#FFFFFF" stroke="#FF0000" stroke-width="1" stroke-miterlimit="3.999327"/>
</svg>
