<svg width="34" height="24" viewBox="0 0 34 24" fill="none" xmlns="http://www.w3.org/2000/svg" xmlns:xlink="http://www.w3.org/1999/xlink">
<path d="M17.001,5.175C21.934,5.175 26.679,7.11 30.254,10.58C30.523,10.847 30.953,10.844 31.218,10.572L33.792,7.921C33.926,7.783 34.001,7.596 34,7.402C33.999,7.207 33.922,7.021 33.786,6.885C24.402,-2.295 9.598,-2.295 0.214,6.885C0.078,7.021 0.001,7.207 0,7.401C-0.001,7.596 0.073,7.783 0.208,7.921L2.782,10.572C3.047,10.845 3.478,10.848 3.747,10.58C7.322,7.11 12.067,5.175 17.001,5.175ZM17.072,13.345C19.782,13.345 22.396,14.373 24.405,16.23C24.677,16.493 25.105,16.488 25.37,16.217L27.94,13.566C28.076,13.427 28.151,13.238 28.149,13.042C28.147,12.846 28.068,12.659 27.93,12.523C21.812,6.714 12.337,6.714 6.219,12.523C6.081,12.659 6.002,12.846 6,13.042C5.998,13.238 6.074,13.427 6.209,13.566L8.779,16.217C9.044,16.488 9.472,16.493 9.744,16.23C11.752,14.374 14.363,13.346 17.072,13.345ZM22.299,18.685C22.303,18.882 22.227,19.071 22.09,19.209L17.643,23.79C17.513,23.924 17.335,24 17.15,24C16.964,24 16.787,23.924 16.656,23.79L12.209,19.209C12.072,19.071 11.996,18.882 12,18.685C12.004,18.489 12.088,18.302 12.231,18.171C15.07,15.719 19.229,15.719 22.069,18.171C22.212,18.303 22.295,18.489 22.299,18.685Z" clip-rule="evenodd" fill-rule="evenodd" fill="#FFFFFF"/>
</svg>
