<svg width="1070" height="1574" viewBox="0 0 1070 1574" fill="none" xmlns="http://www.w3.org/2000/svg" xmlns:xlink="http://www.w3.org/1999/xlink">
<rect  x="0" y="0" width="1070" height="1574" fill="url(#pattern_0_9_13250)"/>
<path d="M334,757L331.766,754.998C331.708,755.062 331.652,755.13 331.6,755.2L334,757ZM295,872L292.093,872.742C292.231,873.282 292.517,873.774 292.919,874.16L295,872ZM568,711L565.642,709.146C565.59,709.21 565.544,709.276 565.498,709.344L568,711ZM716,983L713.468,984.608C713.76,985.068 714.17,985.44 714.658,985.684L716,983ZM582,1158L579.004,1157.854C578.992,1158.074 579.006,1158.294 579.044,1158.51L582,1158ZM698,894L695.01,894.252C695.02,894.368 695.036,894.482 695.06,894.594L698,894ZM683,716L680,716C680,716.084 680.004,716.168 680.01,716.252L683,716ZM843,671L841.432,668.442C841.332,668.504 841.236,668.57 841.144,668.644L843,671ZM656,467L656.824,469.885C656.894,469.864 656.964,469.842 657.032,469.817L656,467ZM614,479L614.424,481.97C614.56,481.951 614.692,481.922 614.824,481.885L614,479ZM567,611L564.022,611.362C564.036,611.48 564.058,611.596 564.086,611.712L567,611ZM445,710L442.081,710.692C442.084,710.704 442.087,710.716 442.09,710.728L445,710ZM738.13,595.335L740.172,593.137L738.13,595.335ZM439.293,685.902L442.212,685.212L439.293,685.902ZM458.852,779.798L456.039,778.756L458.852,779.798ZM459.5,768.002L456.59,768.728L459.5,768.002ZM447.659,804.19L449.73,806.36L447.659,804.19ZM452.604,796.668L455.417,797.71L452.604,796.668ZM426.67,823.268L425.236,820.634L426.67,823.268ZM430.919,820.168L432.99,822.338L430.919,820.168ZM344.207,864.614L344.407,861.62L344.407,861.62L344.207,864.614ZM355.099,862.224L353.665,859.59L355.099,862.224ZM298.583,868.418L296.461,866.296L298.583,868.418ZM314.055,862.604L314.255,859.61L314.055,862.604ZM479.199,829.772L477.928,832.488L479.199,829.772ZM562.704,497.036L560.83,494.694L562.704,497.036ZM555.344,515.066L552.366,515.428L555.344,515.066ZM584.404,483.228L583.98,480.258L584.404,483.228ZM574.738,487.41L576.612,489.752L574.738,487.41ZM825.052,611.32L822.102,610.774L825.052,611.32ZM820.082,621.244L817.878,619.209L820.082,621.244ZM843.232,470.095L840.626,468.607L843.232,470.095ZM861.276,619.662L859.384,621.991L861.276,619.662ZM853.928,615.889L853.138,618.783L853.928,615.889ZM866.612,623.997L864.72,626.325L866.612,623.997ZM864.452,657.852L862.884,655.295L864.452,657.852ZM808.038,702.23L805.23,701.176L808.038,702.23ZM814.388,693.542L812.532,691.186L814.388,693.542ZM791.972,732.59L790.438,730.014L791.972,732.59ZM800.464,722.432L803.272,723.484L800.464,722.432ZM740.042,747.104L738.032,749.33L740.042,747.104ZM763.684,749.444L765.22,752.02L763.684,749.444ZM718.736,722.424L715.79,722.99L718.736,722.424ZM724.97,733.488L722.958,735.716L724.97,733.488ZM711.158,672.6L708.256,671.838L711.158,672.6ZM710.86,681.468L707.914,682.034L710.86,681.468ZM729.35,635.26L730.464,638.045L729.35,635.26ZM742.428,630.029L741.314,627.243L742.428,630.029ZM720.806,609.193L718.686,607.072L720.806,609.193ZM583.348,1130.362L586.344,1130.508L583.348,1130.362ZM596.598,1112.5L597.606,1115.326L596.598,1112.5ZM679.944,1242.258L679.5,1239.292L679.944,1242.258ZM698.204,1242.564L700.078,1240.22L698.204,1242.564ZM652.814,1238.658L654.01,1235.908L652.814,1238.658ZM590.65,1208.168L587.694,1208.676L590.65,1208.168ZM598.358,1220.77L600.158,1218.37L598.358,1220.77ZM696.03,1058.542L696.37,1061.522L696.03,1058.542ZM688.466,1060.992L689.94,1063.606L688.466,1060.992ZM741.066,1045.426L738.484,1043.9L741.066,1045.426ZM726.106,1055.124L726.444,1058.106L726.106,1055.124ZM749.428,1027.578L746.442,1027.288L749.428,1027.578ZM746.74,1035.826L749.322,1037.352L746.74,1035.826ZM750.676,1014.672L747.69,1014.384L750.676,1014.672ZM680.7,929.042L682.646,926.758L680.7,929.042ZM684.618,933.55L687.152,931.942L684.618,933.55ZM674.666,460.155L673.634,457.339L674.666,460.155ZM601.068,885.434L599.566,882.838L601.068,885.434ZM613.792,882.926L613.386,885.898L613.792,882.926ZM736.522,581.606L739.462,581.018L736.522,581.606ZM519.896,891.792L516.97,892.46L519.896,891.792ZM530.448,905.224L529.106,907.908L530.448,905.224ZM771.022,622.215L772.742,619.757L771.022,622.215ZM517.368,859.494L514.702,858.114L517.368,859.494ZM515.632,873.142L518.558,872.474L515.632,873.142ZM819.06,622.352L816.856,620.317L819.06,622.352ZM801.686,628.606L802.088,625.633L801.686,628.606ZM585.762,727.324L583.098,725.944L585.762,727.324ZM843.014,470.477L840.408,468.988L843.014,470.477ZM844.302,476.359L846.046,473.917L844.302,476.359ZM573.44,704.076L575.798,705.93L573.44,704.076ZM691.574,1240.514L691.13,1237.546L691.574,1240.514ZM850.354,473.702L853.096,474.92L850.354,473.702ZM468.166,842.986L468.423,839.996L468.166,842.986ZM486.554,834.094L489.056,835.75L486.554,834.094ZM623.194,884.208L622.788,887.18L623.194,884.208ZM633.46,888.8L631.516,891.084L633.46,888.8ZM690.644,1255.106L691.84,1252.354L690.644,1255.106ZM824.732,563.533L821.77,564.011L824.732,563.533ZM825.32,554.602L828.192,555.464L825.32,554.602ZM312.139,888.504L310.058,890.666L312.139,888.504ZM334.421,892.244L333.16,889.522L334.421,892.244ZM718.298,490.486L715.356,491.074L718.298,490.486ZM712.092,479.566L710.08,481.793L712.092,479.566ZM540.362,910.18L539.02,912.864L540.362,910.18ZM614.666,1233L616.466,1230.6L614.666,1233ZM846.326,613.816L847.116,610.922L846.326,613.816ZM832.616,600.846L829.77,601.794L832.616,600.846ZM288.748,817.336L286.348,815.536L288.748,817.336ZM285.37,834.284L282.463,835.026L285.37,834.284ZM331.6,755.2L286.348,815.536L291.148,819.136L336.4,758.8L331.6,755.2ZM282.463,835.026L292.093,872.742L297.907,871.258L288.277,833.54L282.463,835.026ZM292.919,874.16L310.058,890.666L314.22,886.344L297.081,869.84L292.919,874.16ZM335.682,894.966L446.261,843.722L443.739,838.278L333.16,889.522L335.682,894.966ZM444.744,843.99L467.91,845.974L468.423,839.996L445.256,838.01L444.744,843.99ZM570.358,712.854L575.798,705.93L571.08,702.224L565.642,709.146L570.358,712.854ZM585,697L585,718.132L591,718.132L591,697L585,697ZM583.098,725.944L514.702,858.114L520.032,860.872L588.428,728.702L583.098,725.944ZM512.708,873.81L516.97,892.46L522.82,891.124L518.558,872.474L512.708,873.81ZM529.106,907.908L539.02,912.864L541.702,907.498L531.79,902.54L529.106,907.908ZM560.83,912.196L602.572,888.03L599.566,882.838L557.824,907.004L560.83,912.196ZM613.386,885.898L622.788,887.18L623.6,881.236L614.196,879.954L613.386,885.898ZM631.516,891.084L678.756,931.326L682.646,926.758L635.406,886.516L631.516,891.084ZM682.086,935.158L713.468,984.608L718.532,981.392L687.152,931.942L682.086,935.158ZM714.658,985.684L738.372,997.54L741.056,992.174L717.342,980.316L714.658,985.684ZM747.69,1014.384L746.442,1027.288L752.414,1027.866L753.662,1014.962L747.69,1014.384ZM744.156,1034.3L738.484,1043.9L743.648,1046.954L749.322,1037.352L744.156,1034.3ZM725.766,1052.144L695.692,1055.562L696.37,1061.522L726.444,1058.106L725.766,1052.144ZM686.992,1058.38L596.526,1109.386L599.474,1114.614L689.94,1063.606L686.992,1058.38ZM595.166,1111.014L579.166,1157.014L584.834,1158.986L600.834,1112.986L595.166,1111.014ZM579.044,1158.51L587.694,1208.676L593.606,1207.658L584.956,1157.49L579.044,1158.51ZM596.558,1223.17L612.866,1235.4L616.466,1230.6L600.158,1218.37L596.558,1223.17ZM626.666,1240L644.84,1240L644.84,1234L626.666,1234L626.666,1240ZM700.078,1240.22L699.578,1239.822L695.83,1244.506L696.33,1244.906L700.078,1240.22ZM691.13,1237.546L679.5,1239.292L680.39,1245.226L692.02,1243.48L691.13,1237.546ZM651.618,1241.41L670.804,1249.752L673.196,1244.248L654.01,1235.908L651.618,1241.41ZM670.804,1249.752L689.448,1257.858L691.84,1252.354L673.196,1244.248L670.804,1249.752ZM584.996,1158.146L586.344,1130.508L580.352,1130.216L579.004,1157.854L584.996,1158.146ZM597.606,1115.326L599.01,1114.826L596.99,1109.174L595.588,1109.676L597.606,1115.326ZM718.94,982.406L700.94,893.406L695.06,894.594L713.06,983.594L718.94,982.406ZM700.99,893.748L685.99,715.748L680.01,716.252L695.01,894.252L700.99,893.748ZM686,716L686,655.284L680,655.284L680,716L686,716ZM690.98,643.263L722.928,611.314L718.686,607.072L686.736,639.021L690.98,643.263ZM742.552,608.13L753.658,613.683L756.342,608.317L745.234,602.763L742.552,608.13ZM752,611L752,611.459L758,611.459L758,611L752,611ZM741.314,627.243L728.236,632.474L730.464,638.045L743.542,632.814L741.314,627.243ZM714.536,647.976L708.256,671.838L714.058,673.364L720.338,649.503L714.536,647.976ZM707.914,682.034L715.79,722.99L721.682,721.858L713.806,680.9L707.914,682.034ZM722.958,735.716L738.032,749.33L742.054,744.876L726.98,731.262L722.958,735.716ZM765.22,752.02L793.508,735.168L790.438,730.014L762.15,746.866L765.22,752.02ZM803.272,723.484L810.848,703.284L805.23,701.176L797.654,721.378L803.272,723.484ZM816.244,695.9L844.856,673.356L841.144,668.644L812.532,691.186L816.244,695.9ZM844.568,673.558L866.018,660.41L862.884,655.295L841.432,668.442L844.568,673.558ZM877,640.8L877,639.519L871,639.519L871,640.8L877,640.8ZM868.504,621.669L863.168,617.334L859.384,621.991L864.72,626.325L868.504,621.669ZM854.716,612.995L847.116,610.922L845.538,616.711L853.138,618.783L854.716,612.995ZM835.462,599.897L831.846,589.051L826.154,590.949L829.77,601.794L835.462,599.897ZM831.962,589.522L827.692,563.056L821.77,564.011L826.038,590.478L831.962,589.522ZM828.192,555.464L850.874,479.862L845.126,478.138L822.446,553.74L828.192,555.464ZM850.742,480.218L853.096,474.92L847.614,472.483L845.258,477.782L850.742,480.218ZM840.626,468.607L840.408,468.988L845.618,471.965L845.836,471.584L840.626,468.607ZM842.558,478.8L846.256,481.441L849.744,476.559L846.046,473.917L842.558,478.8ZM826.05,589.454L822.102,610.774L828.002,611.867L831.95,590.546L826.05,589.454ZM817.878,619.209L816.856,620.317L821.264,624.387L822.286,623.279L817.878,619.209ZM802.088,625.633L780.214,622.677L779.41,628.623L801.284,631.579L802.088,625.633ZM772.742,619.757L756.72,608.542L753.28,613.458L769.302,624.673L772.742,619.757ZM739.462,581.018L721.238,489.898L715.356,491.074L733.58,582.194L739.462,581.018ZM714.102,477.34L696.968,461.865L692.946,466.317L710.08,481.793L714.102,477.34ZM673.634,457.339L654.968,464.183L657.032,469.817L675.7,462.972L673.634,457.339ZM655.176,464.115L613.176,476.115L614.824,481.885L656.824,469.885L655.176,464.115ZM613.576,476.03L583.98,480.258L584.828,486.198L614.424,481.97L613.576,476.03ZM572.864,485.067L560.83,494.694L564.578,499.379L576.612,489.752L572.864,485.067ZM552.366,515.428L564.022,611.362L569.978,610.638L558.322,514.704L552.366,515.428ZM564.086,611.712L585.086,697.712L590.914,696.288L569.914,610.288L564.086,611.712ZM489.056,835.75L489.502,835.076L484.498,831.766L484.052,832.44L489.056,835.75ZM489.502,835.076L570.502,712.656L565.498,709.344L484.498,831.766L489.502,835.076ZM488.272,830.704L480.471,827.054L477.928,832.488L485.728,836.138L488.272,830.704ZM457.967,828.75L443.336,838.504L446.664,843.496L461.295,833.742L457.967,828.75ZM297.121,874.122L300.704,870.538L296.461,866.296L292.879,869.878L297.121,874.122ZM313.856,865.598L344.008,867.608L344.407,861.62L314.255,859.61L313.856,865.598ZM356.533,864.86L428.105,825.902L425.236,820.634L353.665,859.59L356.533,864.86ZM432.99,822.338L449.73,806.36L445.587,802.02L428.847,817.998L432.99,822.338ZM455.417,797.71L461.666,780.84L456.039,778.756L449.791,795.626L455.417,797.71ZM462.411,767.274L447.91,709.272L442.09,710.728L456.59,768.728L462.411,767.274ZM447.919,709.308L442.212,685.212L436.374,686.594L442.081,710.692L447.919,709.308ZM403.227,675.292L331.766,754.998L336.234,759.002L407.695,679.296L403.227,675.292ZM757.042,608.802L740.172,593.137L736.088,597.534L752.958,613.198L757.042,608.802ZM733.308,585.153C731.586,589.458 732.692,594.379 736.088,597.534L740.172,593.137C738.592,591.67 738.078,589.382 738.878,587.381L733.308,585.153ZM422.011,667.824C414.926,667.234 407.973,669.998 403.227,675.292L407.695,679.296C411.186,675.402 416.301,673.368 421.513,673.804L422.011,667.824ZM442.212,685.212C439.949,675.656 431.797,668.64 422.011,667.824L421.513,673.804C428.712,674.404 434.709,679.564 436.374,686.594L442.212,685.212ZM461.666,780.84C463.275,776.496 463.534,771.768 462.411,767.274L456.59,768.728C457.42,772.05 457.228,775.546 456.039,778.756L461.666,780.84ZM449.73,806.36C452.259,803.946 454.204,800.988 455.417,797.71L449.791,795.626C448.894,798.05 447.456,800.236 445.587,802.02L449.73,806.36ZM428.105,825.902C429.883,824.936 431.525,823.736 432.99,822.338L428.847,817.998C427.765,819.032 426.551,819.918 425.236,820.634L428.105,825.902ZM344.008,867.608C348.359,867.898 352.703,866.944 356.533,864.86L353.665,859.59C350.834,861.13 347.623,861.834 344.407,861.62L344.008,867.608ZM300.704,870.538C304.17,867.072 308.964,865.27 313.856,865.598L314.255,859.61C307.637,859.17 301.151,861.606 296.461,866.296L300.704,870.538ZM480.471,827.054C473.188,823.648 464.656,824.29 457.967,828.75L461.295,833.742C466.239,830.446 472.546,829.97 477.928,832.488L480.471,827.054ZM560.83,494.694C554.608,499.672 551.406,507.517 552.366,515.428L558.322,514.704C557.612,508.857 559.98,503.059 564.578,499.379L560.83,494.694ZM583.98,480.258C579.91,480.839 576.072,482.5 572.864,485.067L576.612,489.752C578.984,487.855 581.82,486.628 584.828,486.198L583.98,480.258ZM822.102,610.774C821.518,613.928 820.054,616.853 817.878,619.209L822.286,623.279C825.23,620.09 827.212,616.134 828.002,611.867L822.102,610.774ZM849.458,465.647C846.19,464.246 842.39,465.519 840.626,468.607L845.836,471.584C846.088,471.144 846.63,470.962 847.094,471.162L849.458,465.647ZM863.168,617.334C860.684,615.315 857.804,613.837 854.716,612.995L853.138,618.783C855.42,619.406 857.548,620.498 859.384,621.991L863.168,617.334ZM877,639.519C877,632.593 873.878,626.036 868.504,621.669L864.72,626.325C868.694,629.554 871,634.4 871,639.519L877,639.519ZM866.018,660.41C872.842,656.228 877,648.802 877,640.8L871,640.8C871,646.715 867.926,652.204 862.884,655.295L866.018,660.41ZM810.848,703.284C811.938,700.376 813.804,697.822 816.244,695.9L812.532,691.186C809.23,693.788 806.706,697.242 805.23,701.176L810.848,703.284ZM793.508,735.168C797.996,732.494 801.438,728.374 803.272,723.484L797.654,721.378C796.298,724.992 793.754,728.038 790.438,730.014L793.508,735.168ZM738.032,749.33C745.522,756.096 756.548,757.186 765.22,752.02L762.15,746.866C755.74,750.684 747.59,749.878 742.054,744.876L738.032,749.33ZM715.79,722.99C716.734,727.898 719.25,732.366 722.958,735.716L726.98,731.262C724.24,728.786 722.378,725.484 721.682,721.858L715.79,722.99ZM708.256,671.838C707.38,675.168 707.262,678.652 707.914,682.034L713.806,680.9C713.324,678.402 713.412,675.826 714.058,673.364L708.256,671.838ZM728.236,632.474C721.472,635.18 716.39,640.93 714.536,647.976L720.338,649.503C721.708,644.295 725.466,640.045 730.464,638.045L728.236,632.474ZM752,611.459C752,618.411 747.768,624.662 741.314,627.243L743.542,632.814C752.274,629.321 758,620.864 758,611.459L752,611.459ZM722.928,611.314C728.102,606.14 736.006,604.858 742.552,608.13L745.234,602.763C736.38,598.336 725.686,600.071 718.686,607.072L722.928,611.314ZM686,655.284C686,650.776 687.792,646.452 690.98,643.263L686.736,639.021C682.424,643.334 680,649.184 680,655.284L686,655.284ZM586.344,1130.508C586.68,1123.634 591.126,1117.64 597.606,1115.326L595.588,1109.676C586.82,1112.808 580.806,1120.916 580.352,1130.216L586.344,1130.508ZM679.5,1239.292C675.552,1239.884 671.996,1242.006 669.6,1245.2L674.4,1248.8C675.85,1246.868 678,1245.584 680.39,1245.226L679.5,1239.292ZM700.538,1256.052C705.302,1251.764 705.084,1244.226 700.078,1240.22L696.33,1244.906C698.444,1246.598 698.536,1249.782 696.524,1251.592L700.538,1256.052ZM644.84,1240C647.172,1240 649.48,1240.48 651.618,1241.41L654.01,1235.908C651.118,1234.65 647.996,1234 644.84,1234L644.84,1240ZM587.694,1208.676C588.69,1214.462 591.862,1219.646 596.558,1223.17L600.158,1218.37C596.688,1215.766 594.344,1211.934 593.606,1207.658L587.694,1208.676ZM695.692,1055.562C692.632,1055.908 689.674,1056.868 686.992,1058.38L689.94,1063.606C691.922,1062.488 694.108,1061.78 696.37,1061.522L695.692,1055.562ZM738.484,1043.9C735.772,1048.49 731.064,1051.542 725.766,1052.144L726.444,1058.106C733.61,1057.29 739.98,1053.162 743.648,1046.954L738.484,1043.9ZM746.442,1027.288C746.202,1029.764 745.422,1032.158 744.156,1034.3L749.322,1037.352C751.034,1034.454 752.09,1031.216 752.414,1027.866L746.442,1027.288ZM738.372,997.54C744.664,1000.686 748.368,1007.382 747.69,1014.384L753.662,1014.962C754.58,1005.488 749.568,996.43 741.056,992.174L738.372,997.54ZM678.756,931.326C680.052,932.428 681.174,933.72 682.086,935.158L687.152,931.942C685.918,929.998 684.4,928.25 682.646,926.758L678.756,931.326ZM696.968,461.865C690.634,456.142 681.65,454.4 673.634,457.339L675.7,462.972C681.624,460.8 688.264,462.088 692.946,466.317L696.968,461.865ZM602.572,888.03C605.84,886.138 609.644,885.388 613.386,885.898L614.196,879.954C609.134,879.264 603.986,880.278 599.566,882.838L602.572,888.03ZM733.58,582.194C733.778,583.186 733.684,584.214 733.308,585.153L738.878,587.381C739.686,585.361 739.89,583.151 739.462,581.018L733.58,582.194ZM516.97,892.46C518.504,899.164 522.956,904.832 529.106,907.908L531.79,902.54C527.244,900.268 523.952,896.08 522.82,891.124L516.97,892.46ZM780.214,622.677C777.526,622.314 774.964,621.313 772.742,619.757L769.302,624.673C772.308,626.777 775.774,628.132 779.41,628.623L780.214,622.677ZM514.702,858.114C512.202,862.946 511.496,868.508 512.708,873.81L518.558,872.474C517.662,868.554 518.184,864.444 520.032,860.872L514.702,858.114ZM816.856,620.317C813.094,624.392 807.582,626.376 802.088,625.633L801.284,631.579C808.718,632.584 816.176,629.899 821.264,624.387L816.856,620.317ZM585,718.132C585,720.85 584.348,723.53 583.098,725.944L588.428,728.702C590.118,725.436 591,721.81 591,718.132L585,718.132ZM840.408,468.988C838.502,472.326 839.43,476.565 842.558,478.8L846.046,473.917C845.424,473.473 845.238,472.629 845.618,471.965L840.408,468.988ZM575.798,705.93C578.74,702.186 583.238,700 588,700L588,694C581.398,694 575.16,697.032 571.08,702.224L575.798,705.93ZM699.578,1239.822C697.202,1237.92 694.14,1237.096 691.13,1237.546L692.02,1243.48C693.378,1243.276 694.758,1243.648 695.83,1244.506L699.578,1239.822ZM853.096,474.92C854.68,471.355 853.044,467.184 849.458,465.647L847.094,471.162C847.606,471.381 847.84,471.975 847.614,472.483L853.096,474.92ZM467.91,845.974C476.299,846.694 484.41,842.772 489.056,835.75L484.052,832.44C480.618,837.63 474.623,840.528 468.423,839.996L467.91,845.974ZM622.788,887.18C626.01,887.62 629.04,888.974 631.516,891.084L635.406,886.516C632.056,883.662 627.958,881.83 623.6,881.236L622.788,887.18ZM696.524,1251.592C695.246,1252.742 693.416,1253.04 691.84,1252.354L689.448,1257.858C693.178,1259.48 697.514,1258.774 700.538,1256.052L696.524,1251.592ZM827.692,563.056C827.284,560.52 827.454,557.924 828.192,555.464L822.446,553.74C821.448,557.068 821.216,560.58 821.77,564.011L827.692,563.056ZM310.058,890.666C316.894,897.248 327.072,898.956 335.682,894.966L333.16,889.522C326.795,892.472 319.273,891.208 314.22,886.344L310.058,890.666ZM721.238,489.898C720.27,485.054 717.768,480.651 714.102,477.34L710.08,481.793C712.79,484.24 714.64,487.494 715.356,491.074L721.238,489.898ZM539.02,912.864C545.94,916.324 554.134,916.072 560.83,912.196L557.824,907.004C552.874,909.87 546.818,910.054 541.702,907.498L539.02,912.864ZM612.866,1235.4C616.848,1238.386 621.69,1240 626.666,1240L626.666,1234C622.988,1234 619.41,1232.806 616.466,1230.6L612.866,1235.4ZM847.116,610.922C841.632,609.426 837.258,605.289 835.462,599.897L829.77,601.794C832.2,609.09 838.118,614.687 845.538,616.711L847.116,610.922ZM286.348,815.536C282.169,821.108 280.74,828.276 282.463,835.026L288.277,833.54C287.003,828.552 288.059,823.254 291.148,819.136L286.348,815.536Z" fill="#FF0000"/>
<rect  x="325" y="737" width="28" height="28" rx="50" fill="#FFFFFF" stroke="#FF0000" stroke-width="1" stroke-miterlimit="3.999327"/>
<rect  x="313" y="849" width="28" height="28" rx="50" fill="#FFFFFF" stroke="#FF0000" stroke-width="1" stroke-miterlimit="3.999327"/>
<rect  x="439" y="725" width="28" height="28" rx="50" fill="#FFFFFF" stroke="#FF0000" stroke-width="1" stroke-miterlimit="3.999327"/>
<rect  x="549" y="719" width="28" height="28" rx="50" fill="#FFFFFF" stroke="#FF0000" stroke-width="1" stroke-miterlimit="3.999327"/>
<rect  x="555" y="577" width="28" height="28" rx="50" fill="#FFFFFF" stroke="#FF0000" stroke-width="1" stroke-miterlimit="3.999327"/>
<rect  x="713" y="511" width="28" height="28" rx="50" fill="#FFFFFF" stroke="#FF0000" stroke-width="1" stroke-miterlimit="3.999327"/>
<rect  x="501" y="873" width="28" height="28" rx="50" fill="#FFFFFF" stroke="#FF0000" stroke-width="1" stroke-miterlimit="3.999327"/>
<rect  x="695" y="911" width="28" height="28" rx="50" fill="#FFFFFF" stroke="#FF0000" stroke-width="1" stroke-miterlimit="3.999327"/>
<rect  x="625" y="1221" width="28" height="28" rx="50" fill="#FFFFFF" stroke="#FF0000" stroke-width="1" stroke-miterlimit="3.999327"/>
<rect  x="737" y="737" width="28" height="28" rx="50" fill="#FFFFFF" stroke="#FF0000" stroke-width="1" stroke-miterlimit="3.999327"/>
<rect  x="849" y="651" width="28" height="28" rx="50" fill="#FFFFFF" stroke="#FF0000" stroke-width="1" stroke-miterlimit="3.999327"/>
<rect  x="837" y="455" width="28" height="28" rx="50" fill="#FFFFFF" stroke="#FF0000" stroke-width="1" stroke-miterlimit="3.999327"/>
<rect  x="783" y="619" width="28" height="28" rx="50" fill="#FFFFFF" stroke="#FF0000" stroke-width="1" stroke-miterlimit="3.999327"/>
<rect  x="507" y="761" width="28" height="28" rx="50" fill="#FFFFFF" stroke="#FF0000" stroke-width="1" stroke-miterlimit="3.999327"/>
</svg>
