<svg width="640" height="776" viewBox="0 0 640 776" fill="none" xmlns="http://www.w3.org/2000/svg" xmlns:xlink="http://www.w3.org/1999/xlink">
<g filter="url(#filter9_12655)">
<rect  x="0" y="0" width="640" height="776" rx="50" fill="url(#pattern_0_9_12656)"/>
<path d="M74.289,295.686L72.203,293.53C72.139,293.592 72.078,293.658 72.02,293.724L74.289,295.686ZM34.992,396.232L32.114,397.078C32.281,397.648 32.613,398.154 33.068,398.534L34.992,396.232ZM310.072,255.468L307.85,253.454C307.792,253.516 307.738,253.582 307.688,253.648L310.072,255.468ZM330.226,243.228L333.226,243.228C333.226,242.952 333.188,242.68 333.114,242.414L330.226,243.228ZM459.202,493.28L456.78,495.052C457.094,495.482 457.518,495.82 458.008,496.034L459.202,493.28ZM324.18,646.286L321.184,646.118C321.17,646.37 321.188,646.622 321.238,646.87L324.18,646.286ZM414.866,724.1L413.806,726.906L414.866,724.1ZM441.064,415.468L438.078,415.758C438.09,415.888 438.112,416.02 438.142,416.148L441.064,415.468ZM425.95,259.84L422.95,259.84C422.95,259.936 422.954,260.032 422.964,260.13L425.95,259.84ZM587.17,220.495L585.76,217.847C585.662,217.899 585.568,217.956 585.476,218.019L587.17,220.495ZM398.744,42.136L399.466,45.048C399.528,45.032 399.592,45.014 399.654,44.994L398.744,42.136ZM356.424,52.627L356.792,55.605C356.912,55.59 357.03,55.568 357.146,55.539L356.424,52.627ZM309.066,168.037L306.094,168.453C306.112,168.587 306.14,168.719 306.178,168.849L309.066,168.037ZM186.135,254.594L183.241,255.384C183.245,255.396 183.249,255.41 183.253,255.424L186.135,254.594ZM481.248,154.138L479.366,156.474L481.248,154.138ZM161.807,220.266L162.023,217.274L161.807,220.266ZM146.455,225.843L144.369,223.687L146.455,225.843ZM180.795,235.03L177.901,235.82L180.795,235.03ZM162.944,220.349L162.727,223.341L162.944,220.349ZM199.463,317.098L202.222,318.274L199.463,317.098ZM200.286,303.708L197.404,304.54L200.286,303.708ZM188.448,337.248L186.534,334.938L188.448,337.248ZM194.084,329.698L191.325,328.52L194.084,329.698ZM167.736,353.592L166.455,350.88L167.736,353.592ZM85.323,389.818L85.15,392.812L85.323,389.818ZM95.019,387.936L93.738,385.222L95.019,387.936ZM38.925,392.82L40.891,395.086L38.925,392.82ZM53.188,387.958L53.014,390.954L53.188,387.958ZM219.385,358.82L218.257,361.6L219.385,358.82ZM201.848,360.04L203.351,362.636L201.848,360.04ZM306.074,67.468L304.364,65.004L306.074,67.468ZM297.672,86.671L300.644,86.255L297.672,86.671ZM326.05,56.392L325.682,53.415L326.05,56.392ZM317.106,59.811L318.816,62.275L317.106,59.811ZM569.33,167.167L566.396,166.541L569.33,167.167ZM563.468,177.565L561.414,175.379L563.468,177.565ZM587.47,44.74L584.964,43.09L587.47,44.74ZM598.524,172.393L599.214,169.473L598.524,172.393ZM611.124,179.514L609.394,181.966L611.124,179.514ZM609.29,208.731L607.882,206.083L609.29,208.731ZM551.622,248.538L548.868,247.348L551.622,248.538ZM558.694,239.962L557.002,237.486L558.694,239.962ZM535.484,274.484L536.862,277.148L535.484,274.484ZM544.658,264.652L547.412,265.842L544.658,264.652ZM484.358,287.762L486.208,285.402L484.358,287.762ZM505.878,289.788L507.256,292.452L505.878,289.788ZM461.682,264.21L464.61,263.562L461.682,264.21ZM468.87,275.624L470.722,273.264L468.87,275.624ZM454.676,220.726L451.806,219.855L454.676,220.726ZM454.29,230.858L457.218,230.209L454.29,230.858ZM460.274,202.267L457.404,201.396L460.274,202.267ZM464.802,165.799L466.768,168.065L464.802,165.799ZM432.842,193.531L434.808,195.797L432.842,193.531ZM325.416,624.308L328.41,624.476L325.416,624.308ZM339.464,606.326L340.352,609.192L339.464,606.326ZM422.472,720.006L422.086,717.03L422.472,720.006ZM440.69,719.818L438.978,722.282L440.69,719.818ZM395.102,716.644L394.044,719.45L395.102,716.644ZM332.614,688.728L335.556,688.144L332.614,688.728ZM341.32,701.594L339.684,704.108L341.32,701.594ZM438.606,559.374L438.9,562.36L438.606,559.374ZM431.78,561.314L430.462,558.618L431.78,561.314ZM484.616,547.628L487.096,549.318L484.616,547.628ZM470.048,556.274L470.342,559.26L470.048,556.274ZM493.004,531.186L490.022,530.854L493.004,531.186ZM489.658,540.228L492.136,541.916L489.658,540.228ZM481.922,503.138L480.728,505.89L481.922,503.138ZM423.496,446.002L421.712,448.416L423.496,446.002ZM427.75,450.28L425.33,452.05L427.75,450.28ZM418.896,35.724L419.804,38.583L418.896,35.724ZM344.004,407.67L345.352,410.352L344.004,407.67ZM355.332,405.68L355.686,402.702L355.332,405.68ZM479.868,142.286L476.944,142.96L479.868,142.286ZM261.248,412.198L264.15,411.434L261.248,412.198ZM272.63,425.452L273.824,422.7L272.63,425.452ZM522.98,180.785L522.63,183.764L522.98,180.785ZM514.926,178.015L513.368,180.579L514.926,178.015ZM259.964,383.772L257.388,382.234L259.964,383.772ZM257.802,399.11L254.9,399.874L257.802,399.11ZM562.716,178.273L564.77,180.459L562.716,178.273ZM546.688,183.565L547.038,180.585L546.688,183.565ZM327.402,270.692L329.98,272.23L327.402,270.692ZM587.426,44.806L584.92,43.156L587.426,44.806ZM588.664,50.432L590.246,47.882L588.664,50.432ZM315.202,249.802L312.978,247.79L315.202,249.802ZM440.27,719.526L441.982,717.062L440.27,719.526ZM435.35,718.33L434.962,715.354L435.35,718.33ZM594.228,48.681L591.558,47.313L594.228,48.681ZM210.59,370.948L210.812,367.956L210.59,370.948ZM366.268,406.974L366.62,403.996L366.268,406.974ZM375.806,410.752L377.588,408.34L375.806,410.752ZM434.54,731.522L435.598,728.714L434.54,731.522ZM568.99,127.768L571.94,127.22L568.99,127.768ZM569.752,117.578L566.916,116.598L569.752,117.578ZM53.015,411.292L54.938,408.99L53.015,411.292ZM73.3,414.5L74.419,417.284L73.3,414.5ZM461.796,63.888L464.72,63.214L461.796,63.888ZM454.644,52.638L456.496,50.277L454.644,52.638ZM283.356,430.106L284.55,427.352L283.356,430.106ZM300.294,429.63L301.64,432.31L300.294,429.63ZM357.496,712.12L359.132,709.604L357.496,712.12ZM590.392,170.469L591.084,167.549L590.392,170.469ZM576.328,158.178L573.528,159.254L576.328,158.178ZM30.036,346.884L32.306,348.846L30.036,346.884ZM25.981,365.608L28.859,364.762L25.981,365.608ZM72.02,293.724L27.767,344.922L32.306,348.846L76.559,297.648L72.02,293.724ZM23.103,366.454L32.114,397.078L37.87,395.386L28.859,364.762L23.103,366.454ZM33.068,398.534L51.091,413.594L54.938,408.99L36.915,393.93L33.068,398.534ZM74.419,417.284L187.255,371.912L185.016,366.346L72.181,411.716L74.419,417.284ZM185.913,372.12L210.367,373.938L210.812,367.956L186.358,366.136L185.913,372.12ZM312.296,257.482L317.426,251.816L312.978,247.79L307.85,253.454L312.296,257.482ZM330.028,246.228L330.226,246.228L330.226,240.228L330.028,240.228L330.028,246.228ZM327.226,243.228L327.226,260.448L333.226,260.448L333.226,243.228L327.226,243.228ZM324.826,269.156L257.388,382.234L262.54,385.308L329.98,272.23L324.826,269.156ZM254.9,399.874L258.348,412.962L264.15,411.434L260.702,398.346L254.9,399.874ZM271.436,428.204L282.162,432.858L284.55,427.352L273.824,422.7L271.436,428.204ZM301.64,432.31L345.352,410.352L342.658,404.99L298.946,426.948L301.64,432.31ZM354.98,408.66L365.916,409.954L366.62,403.996L355.686,402.702L354.98,408.66ZM374.022,413.166L421.712,448.416L425.278,443.59L377.588,408.34L374.022,413.166ZM425.33,452.05L456.78,495.052L461.622,491.51L430.172,448.508L425.33,452.05ZM458.008,496.034L480.728,505.89L483.116,500.386L460.396,490.528L458.008,496.034ZM490.856,523.37L490.022,530.854L495.984,531.518L496.82,524.034L490.856,523.37ZM487.178,538.538L482.138,545.94L487.096,549.318L492.136,541.916L487.178,538.538ZM469.754,553.29L438.312,556.39L438.9,562.36L470.342,559.26L469.754,553.29ZM430.462,558.618L338.984,603.372L341.62,608.762L433.098,564.008L430.462,558.618ZM337.516,604.95L321.394,645.17L326.964,647.402L343.086,607.184L337.516,604.95ZM321.238,646.87L329.67,689.312L335.556,688.144L327.122,645.7L321.238,646.87ZM339.684,704.108L355.858,714.634L359.132,709.604L342.956,699.078L339.684,704.108ZM368.404,718.356L388.044,718.356L388.044,712.356L368.404,712.356L368.404,718.356ZM442.4,717.354L441.982,717.062L438.56,721.992L438.978,722.282L442.4,717.354ZM434.962,715.354L422.086,717.03L422.86,722.98L435.738,721.304L434.962,715.354ZM394.044,719.45L413.806,726.906L415.924,721.292L396.162,713.836L394.044,719.45ZM413.806,726.906L433.48,734.328L435.598,728.714L415.924,721.292L413.806,726.906ZM327.174,646.454L328.41,624.476L322.42,624.14L321.184,646.118L327.174,646.454ZM340.352,609.192L341.19,608.932L339.414,603.202L338.576,603.462L340.352,609.192ZM462.122,492.6L443.986,414.786L438.142,416.148L456.28,493.962L462.122,492.6ZM444.05,415.178L428.936,259.55L422.964,260.13L438.078,415.758L444.05,415.178ZM428.95,259.84L428.95,208.637L422.95,208.637L422.95,259.84L428.95,259.84ZM434.808,195.797L466.768,168.065L462.836,163.534L430.876,191.265L434.808,195.797ZM484.676,165.31L497.304,170.789L499.692,165.285L487.064,159.806L484.676,165.31ZM485.952,181.456L471.872,186.343L473.84,192.011L487.918,187.125L485.952,181.456ZM457.404,201.396L451.806,219.855L457.548,221.597L463.146,203.137L457.404,201.396ZM451.36,231.507L458.752,264.86L464.61,263.562L457.218,230.209L451.36,231.507ZM467.02,277.986L482.508,290.124L486.208,285.402L470.722,273.264L467.02,277.986ZM507.256,292.452L536.862,277.148L534.106,271.818L504.502,287.122L507.256,292.452ZM547.412,265.842L554.376,249.728L548.868,247.348L541.904,263.462L547.412,265.842ZM560.388,242.438L588.862,222.972L585.476,218.019L557.002,237.486L560.388,242.438ZM588.578,223.144L610.698,211.38L607.882,206.083L585.76,217.847L588.578,223.144ZM612.852,177.062L607.17,173.057L603.714,177.961L609.394,181.966L612.852,177.062ZM599.214,169.473L591.084,167.549L589.702,173.388L597.832,175.312L599.214,169.473ZM579.13,157.103L575.864,148.6L570.262,150.752L573.528,159.254L579.13,157.103ZM576.012,149.128L571.94,127.22L566.04,128.316L570.114,150.224L576.012,149.128ZM572.586,118.558L595.042,53.608L589.372,51.647L566.916,116.598L572.586,118.558ZM594.878,53.995L596.9,50.049L591.558,47.313L589.538,51.26L594.878,53.995ZM584.964,43.09L584.92,43.156L589.932,46.456L589.976,46.39L584.964,43.09ZM587.084,52.982L590.628,55.177L593.788,50.077L590.246,47.882L587.084,52.982ZM570.128,149.05L566.396,166.541L572.264,167.793L575.996,150.302L570.128,149.05ZM561.414,175.379L560.66,176.087L564.77,180.459L565.524,179.751L561.414,175.379ZM547.038,180.585L523.328,177.805L522.63,183.764L546.338,186.544L547.038,180.585ZM516.484,175.451L500.056,165.473L496.942,170.601L513.368,180.579L516.484,175.451ZM482.79,141.613L464.72,63.214L458.874,64.561L476.944,142.96L482.79,141.613ZM456.496,50.277L439.146,36.68L435.446,41.403L452.794,54.999L456.496,50.277ZM417.986,32.866L397.834,39.277L399.654,44.994L419.804,38.583L417.986,32.866ZM398.022,39.224L355.702,49.716L357.146,55.539L399.466,45.048L398.022,39.224ZM356.054,49.65L325.682,53.415L326.42,59.37L356.792,55.605L356.054,49.65ZM315.396,57.346L304.364,65.004L307.786,69.933L318.816,62.275L315.396,57.346ZM294.702,87.087L306.094,168.453L312.036,167.621L300.644,86.255L294.702,87.087ZM306.178,168.849L327.338,244.04L333.114,242.414L311.954,167.224L306.178,168.849ZM230.362,364.948L230.84,364.32L226.07,360.682L225.59,361.31L230.362,364.948ZM230.84,364.32L312.458,257.286L307.688,253.648L226.07,360.682L230.84,364.32ZM229.584,359.722L220.513,356.04L218.257,361.6L227.326,365.282L229.584,359.722ZM200.346,357.442L184.633,366.532L187.638,371.726L203.351,362.636L200.346,357.442ZM36.958,398.498L40.891,395.086L36.959,390.554L33.026,393.966L36.958,398.498ZM53.014,390.954L85.15,392.812L85.497,386.822L53.361,384.964L53.014,390.954ZM96.301,390.648L169.018,356.304L166.455,350.88L93.738,385.222L96.301,390.648ZM173.866,353.22L190.361,339.558L186.534,334.938L170.039,348.6L173.866,353.22ZM196.844,330.874L202.222,318.274L196.703,315.92L191.325,328.52L196.844,330.874ZM203.169,302.878L189.018,253.762L183.253,255.424L197.404,304.54L203.169,302.878ZM189.03,253.804L183.69,234.24L177.901,235.82L183.241,255.384L189.03,253.804ZM163.16,217.356L162.023,217.274L161.59,223.259L162.727,223.341L163.16,217.356ZM144.369,223.687L72.203,293.53L76.376,297.842L148.542,227.998L144.369,223.687ZM500.38,165.701L483.13,151.801L479.366,156.474L496.616,170.373L500.38,165.701ZM476.716,145.172C474.904,149.101 475.996,153.759 479.366,156.474L483.13,151.801C481.902,150.812 481.504,149.116 482.164,147.684L476.716,145.172ZM162.023,217.274C155.494,216.802 149.073,219.134 144.369,223.687L148.542,227.998C152.019,224.634 156.765,222.91 161.59,223.259L162.023,217.274ZM183.69,234.24C181.12,224.827 172.892,218.06 163.16,217.356L162.727,223.341C169.92,223.861 176.002,228.863 177.901,235.82L183.69,234.24ZM202.222,318.274C204.301,313.404 204.635,307.966 203.169,302.878L197.404,304.54C198.487,308.3 198.24,312.32 196.703,315.92L202.222,318.274ZM190.361,339.558C193.183,337.222 195.405,334.244 196.844,330.874L191.325,328.52C190.262,331.01 188.619,333.21 186.534,334.938L190.361,339.558ZM169.018,356.304C170.756,355.484 172.385,354.448 173.866,353.22L170.039,348.6C168.945,349.506 167.741,350.272 166.455,350.88L169.018,356.304ZM85.15,392.812C88.989,393.034 92.823,392.29 96.301,390.648L93.738,385.222C91.168,386.436 88.334,386.986 85.497,386.822L85.15,392.812ZM40.891,395.086C44.239,392.18 48.589,390.698 53.014,390.954L53.361,384.964C47.374,384.618 41.489,386.624 36.959,390.554L40.891,395.086ZM220.513,356.04C213.935,353.37 206.492,353.888 200.346,357.442L203.351,362.636C207.893,360.008 213.394,359.626 218.257,361.6L220.513,356.04ZM304.364,65.004C297.234,69.953 293.498,78.493 294.702,87.087L300.644,86.255C299.754,79.903 302.516,73.591 307.786,69.933L304.364,65.004ZM325.682,53.415C321.984,53.873 318.454,55.222 315.396,57.346L318.816,62.275C321.078,60.705 323.688,59.708 326.42,59.37L325.682,53.415ZM566.396,166.541C565.674,169.926 563.936,173.009 561.414,175.379L565.524,179.751C568.934,176.544 571.286,172.373 572.264,167.793L566.396,166.541ZM593.152,40.411C590.132,39.287 586.736,40.399 584.964,43.09L589.976,46.39C590.21,46.033 590.66,45.885 591.062,46.034L593.152,40.411ZM607.17,173.057C604.772,171.366 602.07,170.149 599.214,169.473L597.832,175.312C599.944,175.812 601.94,176.711 603.714,177.961L607.17,173.057ZM621.406,193.559C621.406,186.997 618.216,180.844 612.852,177.062L609.394,181.966C613.164,184.624 615.406,188.947 615.406,193.559L621.406,193.559ZM610.698,211.38C617.288,207.876 621.406,201.022 621.406,193.559L615.406,193.559C615.406,198.804 612.512,203.62 607.882,206.083L610.698,211.38ZM554.376,249.728C555.65,246.78 557.734,244.252 560.388,242.438L557.002,237.486C553.412,239.938 550.594,243.358 548.868,247.348L554.376,249.728ZM536.862,277.148C541.578,274.71 545.306,270.716 547.412,265.842L541.904,263.462C540.348,267.064 537.592,270.016 534.106,271.818L536.862,277.148ZM482.508,290.124C489.59,295.676 499.262,296.586 507.256,292.452L504.502,287.122C498.592,290.178 491.444,289.504 486.208,285.402L482.508,290.124ZM458.752,264.86C459.906,270.06 462.828,274.7 467.02,277.986L470.722,273.264C467.622,270.834 465.462,267.406 464.61,263.562L458.752,264.86ZM451.806,219.855C450.658,223.637 450.506,227.65 451.36,231.507L457.218,230.209C456.586,227.358 456.7,224.392 457.548,221.597L451.806,219.855ZM471.872,186.343C464.918,188.756 459.54,194.352 457.404,201.396L463.146,203.137C464.724,197.931 468.7,193.795 473.84,192.011L471.872,186.343ZM495.498,168.037C495.498,174.087 491.666,179.473 485.952,181.456L487.918,187.125C496.048,184.303 501.498,176.642 501.498,168.037L495.498,168.037ZM466.768,168.065C471.71,163.777 478.674,162.706 484.676,165.31L487.064,159.806C478.944,156.283 469.522,157.732 462.836,163.534L466.768,168.065ZM428.95,208.637C428.95,203.711 431.086,199.026 434.808,195.797L430.876,191.265C425.842,195.634 422.95,201.972 422.95,208.637L428.95,208.637ZM328.41,624.476C328.808,617.388 333.57,611.294 340.352,609.192L338.576,603.462C329.4,606.304 322.958,614.55 322.42,624.14L328.41,624.476ZM422.086,717.03C418.402,717.51 415.024,719.328 412.596,722.138L417.136,726.062C418.6,724.366 420.638,723.27 422.86,722.98L422.086,717.03ZM442.838,732.904C447.968,728.896 447.748,721.066 442.4,717.354L438.978,722.282C441.006,723.688 441.088,726.656 439.144,728.174L442.838,732.904ZM388.044,718.356C390.094,718.356 392.126,718.728 394.044,719.45L396.162,713.836C393.566,712.858 390.816,712.356 388.044,712.356L388.044,718.356ZM329.67,689.312C330.878,695.392 334.49,700.726 339.684,704.108L342.956,699.078C339.118,696.58 336.448,692.638 335.556,688.144L329.67,689.312ZM438.312,556.39C435.584,556.658 432.924,557.414 430.462,558.618L433.098,564.008C434.918,563.118 436.884,562.56 438.9,562.36L438.312,556.39ZM482.138,545.94C479.302,550.104 474.766,552.794 469.754,553.29L470.342,559.26C477.124,558.592 483.26,554.95 487.096,549.318L482.138,545.94ZM490.022,530.854C489.714,533.608 488.738,536.248 487.178,538.538L492.136,541.916C494.248,538.816 495.57,535.246 495.984,531.518L490.022,530.854ZM480.728,505.89C487.576,508.862 491.684,515.952 490.856,523.37L496.82,524.034C497.938,513.998 492.38,504.406 483.116,500.386L480.728,505.89ZM421.712,448.416C423.096,449.438 424.314,450.662 425.33,452.05L430.172,448.508C428.8,446.632 427.15,444.972 425.278,443.59L421.712,448.416ZM439.146,36.68C433.158,31.987 425.236,30.559 417.986,32.866L419.804,38.583C425.164,36.878 431.018,37.934 435.446,41.403L439.146,36.68ZM345.352,410.352C348.326,408.856 351.674,408.268 354.98,408.66L355.686,402.702C351.212,402.172 346.682,402.968 342.658,404.99L345.352,410.352ZM476.944,142.96C477.114,143.702 477.034,144.481 476.716,145.172L482.164,147.684C483.04,145.785 483.26,143.65 482.79,141.613L476.944,142.96ZM258.348,412.962C260.144,419.78 264.968,425.398 271.436,428.204L273.824,422.7C269.042,420.626 265.478,416.474 264.15,411.434L258.348,412.962ZM523.328,177.805C520.904,177.521 518.57,176.718 516.484,175.451L513.368,180.579C516.192,182.293 519.35,183.38 522.63,183.764L523.328,177.805ZM257.388,382.234C254.222,387.542 253.326,393.898 254.9,399.874L260.702,398.346C259.538,393.93 260.202,389.23 262.54,385.308L257.388,382.234ZM560.66,176.087C557.006,179.523 552.02,181.169 547.038,180.585L546.338,186.544C553.08,187.335 559.826,185.107 564.77,180.459L560.66,176.087ZM327.226,260.448C327.226,263.514 326.396,266.524 324.826,269.156L329.98,272.23C332.104,268.666 333.226,264.596 333.226,260.448L327.226,260.448ZM584.92,43.156C582.746,46.457 583.726,50.9 587.084,52.982L590.246,47.882C589.758,47.58 589.616,46.935 589.932,46.456L584.92,43.156ZM317.426,251.816C320.648,248.258 325.226,246.228 330.028,246.228L330.028,240.228C323.532,240.228 317.338,242.974 312.978,247.79L317.426,251.816ZM441.982,717.062C439.934,715.642 437.434,715.034 434.962,715.354L435.738,721.304C436.73,721.176 437.736,721.42 438.56,721.992L441.982,717.062ZM596.9,50.049C598.788,46.362 597.036,41.854 593.152,40.411L591.062,46.034C591.576,46.226 591.81,46.824 591.558,47.313L596.9,50.049ZM210.367,373.938C218.124,374.516 225.646,371.134 230.362,364.948L225.59,361.31C222.105,365.882 216.545,368.382 210.812,367.956L210.367,373.938ZM365.916,409.954C368.85,410.302 371.646,411.408 374.022,413.166L377.588,408.34C374.372,405.962 370.592,404.466 366.62,403.996L365.916,409.954ZM439.144,728.174C438.138,728.96 436.794,729.166 435.598,728.714L433.48,734.328C436.634,735.518 440.18,734.978 442.838,732.904L439.144,728.174ZM571.94,127.22C571.402,124.325 571.624,121.341 572.586,118.558L566.916,116.598C565.614,120.362 565.312,124.4 566.04,128.316L571.94,127.22ZM51.091,413.594C57.594,419.026 66.557,420.444 74.419,417.284L72.181,411.716C66.37,414.054 59.745,413.006 54.938,408.99L51.091,413.594ZM464.72,63.214C463.538,58.088 460.636,53.522 456.496,50.277L452.794,54.999C455.854,57.398 458,60.773 458.874,64.561L464.72,63.214ZM282.162,432.858C288.414,435.57 295.548,435.37 301.64,432.31L298.946,426.948C294.444,429.21 289.172,429.358 284.55,427.352L282.162,432.858ZM355.858,714.634C359.592,717.064 363.95,718.356 368.404,718.356L368.404,712.356C365.112,712.356 361.89,711.4 359.132,709.604L355.858,714.634ZM591.084,167.549C585.618,166.256 581.144,162.346 579.13,157.103L573.528,159.254C576.254,166.348 582.306,171.638 589.702,173.388L591.084,167.549ZM27.767,344.922C22.652,350.84 20.895,358.952 23.103,366.454L28.859,364.762C27.227,359.214 28.525,353.22 32.306,348.846L27.767,344.922Z" fill="#FF0000"/>
<rect  x="65.228" y="278.075" width="28" height="28" rx="50" fill="#FFFFFF" stroke="#FF0000" stroke-width="1" stroke-miterlimit="3.999327"/>
<rect  x="53.137" y="375.998" width="28" height="28" rx="50" fill="#FFFFFF" stroke="#FF0000" stroke-width="1" stroke-miterlimit="3.999327"/>
<rect  x="180.097" y="267.583" width="28" height="28" rx="50" fill="#FFFFFF" stroke="#FF0000" stroke-width="1" stroke-miterlimit="3.999327"/>
<rect  x="290.936" y="262.337" width="28" height="28" rx="50" fill="#FFFFFF" stroke="#FF0000" stroke-width="1" stroke-miterlimit="3.999327"/>
<rect  x="296.981" y="138.184" width="28" height="28" rx="50" fill="#FFFFFF" stroke="#FF0000" stroke-width="1" stroke-miterlimit="3.999327"/>
<rect  x="456.186" y="80.48" width="28" height="28" rx="50" fill="#FFFFFF" stroke="#FF0000" stroke-width="1" stroke-miterlimit="3.999327"/>
<rect  x="242.57" y="396.981" width="28" height="28" rx="50" fill="#FFFFFF" stroke="#FF0000" stroke-width="1" stroke-miterlimit="3.999327"/>
<rect  x="438.049" y="430.205" width="28" height="28" rx="50" fill="#FFFFFF" stroke="#FF0000" stroke-width="1" stroke-miterlimit="3.999327"/>
<rect  x="367.515" y="701.242" width="28" height="28" rx="50" fill="#FFFFFF" stroke="#FF0000" stroke-width="1" stroke-miterlimit="3.999327"/>
<rect  x="480.369" y="278.075" width="28" height="28" rx="50" fill="#FFFFFF" stroke="#FF0000" stroke-width="1" stroke-miterlimit="3.999327"/>
<rect  x="593.223" y="202.884" width="28" height="28" rx="50" fill="#FFFFFF" stroke="#FF0000" stroke-width="1" stroke-miterlimit="3.999327"/>
<rect  x="581.131" y="31.518" width="28" height="28" rx="50" fill="#FFFFFF" stroke="#FF0000" stroke-width="1" stroke-miterlimit="3.999327"/>
<rect  x="526.72" y="174.906" width="28" height="28" rx="50" fill="#FFFFFF" stroke="#FF0000" stroke-width="1" stroke-miterlimit="3.999327"/>
<rect  x="248.616" y="299.058" width="28" height="28" rx="50" fill="#FFFFFF" stroke="#FF0000" stroke-width="1" stroke-miterlimit="3.999327"/>
</g>
<defs>
<filter id="filter9_12655" x="-4" y="-4" width="328" height="396" filterUnits="userSpaceOnUse" color-interpolation-filters="sRGB">
<feFlood flood-opacity="0" result="BackgroundImageFix"/>
<feColorMatrix in="SourceAlpha" type="matrix" values="0 0 0 0 0 0 0 0 0 0 0 0 0 0 0 0 0 0 127 0" result="hardAlpha"/>
<feMorphology radius="0" operator="dilate" in="SourceAlpha" result="0dropshadow"/>
<feOffset dx="2" dy="2"/>
<feGaussianBlur stdDeviation="2"/>
<feComposite in2="hardAlpha" operator="out"/>
<feColorMatrix type="matrix" values="0 0 0 0 0 0 0 0 0 0 0 0 0 0 0 0 0 0 0.25 0"/>
<feBlend mode="normal" in2="BackgroundImageFix" result="0dropshadow"/>
<feBlend mode="normal" in="SourceGraphic" in2="0dropshadow" result="shape"/>
</filter>
</defs>
</svg>
