<svg width="42" height="44" viewBox="0 0 42 44" fill="none" xmlns="http://www.w3.org/2000/svg" xmlns:xlink="http://www.w3.org/1999/xlink">
<path d="M20.5,0.5C21.328,0.5 22,1.172 22,2L22,5.567C29.916,6.281 36.219,12.584 36.933,20.5L40.5,20.5C41.328,20.5 42,21.172 42,22C42,22.828 41.328,23.5 40.5,23.5L36.933,23.5C36.219,31.416 29.916,37.719 22,38.433L22,42C22,42.828 21.328,43.5 20.5,43.5C19.672,43.5 19,42.828 19,42L19,38.433C11.084,37.719 4.781,31.416 4.067,23.5L0.5,23.5C-0.328,23.5 -1,22.828 -1,22C-1,21.172 -0.328,20.5 0.5,20.5L4.067,20.5C4.781,12.584 11.084,6.281 19,5.567L19,2C19,1.172 19.672,0.5 20.5,0.5ZM20.5,8.5C13.044,8.5 7,14.544 7,22C7,29.456 13.044,35.5 20.5,35.5C27.956,35.5 34,29.456 34,22C34,14.544 27.956,8.5 20.5,8.5ZM20.5,17.5C18.015,17.5 16,19.515 16,22C16,24.485 18.015,26.5 20.5,26.5C22.985,26.5 25,24.485 25,22C25,19.515 22.985,17.5 20.5,17.5ZM13,22C13,17.858 16.358,14.5 20.5,14.5C24.642,14.5 28,17.858 28,22C28,26.142 24.642,29.5 20.5,29.5C16.358,29.5 13,26.142 13,22Z" clip-rule="evenodd" fill-rule="evenodd" fill="#FF0000"/>
</svg>
