<svg width="30" height="36" viewBox="0 0 30 36" fill="none" xmlns="http://www.w3.org/2000/svg" xmlns:xlink="http://www.w3.org/1999/xlink">
<path d="M18.333,17.1C18.881,17.1 19.422,16.984 19.928,16.757C20.433,16.531 20.893,16.2 21.28,15.782C21.667,15.364 21.973,14.868 22.183,14.322C22.392,13.776 22.5,13.191 22.5,12.6C22.5,11.407 22.061,10.262 21.28,9.418C20.498,8.574 19.438,8.1 18.333,8.1C17.228,8.1 16.168,8.574 15.387,9.418C14.606,10.262 14.167,11.407 14.167,12.6C14.167,13.191 14.274,13.776 14.484,14.322C14.693,14.868 15,15.364 15.387,15.782C16.168,16.626 17.228,17.1 18.333,17.1ZM18.333,0C24.767,0 30,5.634 30,12.6C30,22.05 18.333,36 18.333,36C18.333,36 6.667,22.05 6.667,12.6C6.667,9.258 7.896,6.053 10.084,3.69C12.272,1.327 15.239,0 18.333,0ZM3.333,12.6C3.333,20.7 11.8,31.788 13.333,33.858L11.667,36C11.667,36 0,22.05 0,12.6C0,6.894 3.517,2.07 8.333,0.522C5.267,3.492 3.333,7.794 3.333,12.6Z" fill="#FFFFFF"/>
</svg>
